<svg xmlns="http://www.w3.org/2000/svg" viewBox="0 0 500 500"><g id="freepik--background-complete--inject-79"><path d="M250,359.71a117.9,117.9,0,1,1,117.89-117.9A118,118,0,0,1,250,359.71ZM250,125A116.84,116.84,0,1,0,366.84,241.81,117,117,0,0,0,250,125Z" style="fill:#ebebeb"></path><path d="M250,346.93A105.12,105.12,0,1,1,355.12,241.81,105.24,105.24,0,0,1,250,346.93Zm0-209.18A104.06,104.06,0,1,0,354.06,241.81,104.18,104.18,0,0,0,250,137.75Z" style="fill:#ebebeb"></path><rect x="180.42" y="61.19" width="1.06" height="19.44" transform="translate(-13.39 72.95) rotate(-22)" style="fill:#ebebeb"></rect><rect x="193.3" y="86.75" width="1.06" height="32.07" transform="translate(-24.39 80.1) rotate(-22)" style="fill:#ebebeb"></rect><rect x="79.8" y="160.07" width="1.06" height="19.44" transform="translate(-107.35 177.39) rotate(-67)" style="fill:#ebebeb"></rect><rect x="111.45" y="167.19" width="1.06" height="32.07" transform="translate(-100.43 214.71) rotate(-67)" style="fill:#ebebeb"></rect><rect x="69.38" y="310.33" width="19.44" height="1.06" transform="translate(-110.69 52.27) rotate(-22)" style="fill:#ebebeb"></rect><rect x="94.94" y="297.45" width="32.07" height="1.06" transform="translate(-103.55 63.27) rotate(-22)" style="fill:#ebebeb"></rect><rect x="168.26" y="410.95" width="19.44" height="1.06" transform="translate(-270.33 414.53) rotate(-67)" style="fill:#ebebeb"></rect><rect x="175.38" y="379.31" width="32.07" height="1.06" transform="translate(-233.02 407.62) rotate(-67)" style="fill:#ebebeb"></rect><rect x="318.52" y="402.99" width="1.06" height="19.44" transform="translate(-131.37 149.57) rotate(-22)" style="fill:#ebebeb"></rect><rect x="305.64" y="364.8" width="1.06" height="32.07" transform="translate(-120.37 142.43) rotate(-22)" style="fill:#ebebeb"></rect><rect x="419.14" y="304.11" width="1.06" height="19.44" transform="translate(-33.19 577.52) rotate(-67)" style="fill:#ebebeb"></rect><rect x="387.49" y="284.36" width="1.06" height="32.07" transform="translate(-40.11 540.2) rotate(-67)" style="fill:#ebebeb"></rect><rect x="411.18" y="172.23" width="19.44" height="1.06" transform="translate(-34.07 170.25) rotate(-22)" style="fill:#ebebeb"></rect><rect x="372.99" y="185.11" width="32.07" height="1.06" transform="translate(-41.22 159.25) rotate(-22)" style="fill:#ebebeb"></rect><rect x="312.3" y="71.61" width="19.44" height="1.06" transform="translate(129.79 340.37) rotate(-67)" style="fill:#ebebeb"></rect><rect x="292.55" y="103.26" width="32.07" height="1.06" transform="translate(92.48 347.29) rotate(-67)" style="fill:#ebebeb"></rect><rect x="249.47" y="32.68" width="1.06" height="47.83" style="fill:#ebebeb"></rect><rect x="249.47" y="91.3" width="1.06" height="16.61" style="fill:#ebebeb"></rect><rect x="118.51" y="86.93" width="1.06" height="47.83" transform="translate(-43.52 116.64) rotate(-45)" style="fill:#ebebeb"></rect><rect x="148.91" y="132.95" width="1.06" height="16.61" transform="translate(-56.11 147.04) rotate(-45)" style="fill:#ebebeb"></rect><rect x="40.87" y="241.28" width="47.83" height="1.06" style="fill:#ebebeb"></rect><rect x="99.48" y="241.28" width="16.61" height="1.06" style="fill:#ebebeb"></rect><rect x="95.12" y="372.25" width="47.83" height="1.06" transform="translate(-228.73 193.35) rotate(-45)" style="fill:#ebebeb"></rect><rect x="141.14" y="341.84" width="16.61" height="1.06" transform="translate(-198.32 205.95) rotate(-45)" style="fill:#ebebeb"></rect><rect x="249.47" y="403.11" width="1.06" height="47.83" style="fill:#ebebeb"></rect><rect x="249.47" y="375.72" width="1.06" height="16.61" style="fill:#ebebeb"></rect><rect x="380.44" y="348.86" width="1.06" height="47.83" transform="translate(-152.01 378.57) rotate(-45)" style="fill:#ebebeb"></rect><rect x="350.03" y="334.07" width="1.06" height="16.61" transform="translate(-139.42 348.16) rotate(-45)" style="fill:#ebebeb"></rect><rect x="411.3" y="241.28" width="47.83" height="1.06" style="fill:#ebebeb"></rect><rect x="383.91" y="241.28" width="16.61" height="1.06" style="fill:#ebebeb"></rect><rect x="357.05" y="110.32" width="47.83" height="1.06" transform="translate(33.2 301.85) rotate(-45)" style="fill:#ebebeb"></rect><rect x="342.25" y="140.72" width="16.61" height="1.06" transform="translate(2.79 289.25) rotate(-45)" style="fill:#ebebeb"></rect><path d="M252.41,241.81A2.41,2.41,0,1,1,250,239.4,2.41,2.41,0,0,1,252.41,241.81Z" style="fill:#ebebeb"></path><path d="M70.24,351.82c2.89.63,4.94,4.25,3.26,6.95a4.83,4.83,0,0,1-9-3.25A4.9,4.9,0,0,1,70.24,351.82Z" style="fill:#ebebeb"></path><path d="M333.44,429.17c2.89.62,4.94,4.25,3.26,6.95a4.83,4.83,0,0,1-9-3.26A4.9,4.9,0,0,1,333.44,429.17Z" style="fill:#ebebeb"></path><path d="M120.67,84.93c2.88.63,4.94,4.25,3.26,6.95a4.83,4.83,0,0,1-9-3.25A4.89,4.89,0,0,1,120.67,84.93Z" style="fill:#ebebeb"></path><path d="M406.77,345.05c2.89.62,4.94,4.25,3.26,6.95a4.83,4.83,0,0,1-9-3.25A4.9,4.9,0,0,1,406.77,345.05Z" style="fill:#ebebeb"></path><path d="M325.46,72c2.89.63,4.94,4.25,3.26,7a4.83,4.83,0,0,1-9-3.25A4.9,4.9,0,0,1,325.46,72Z" style="fill:#ebebeb"></path><path d="M186,213.57c2.88.62,4.94,4.25,3.26,7a4.83,4.83,0,0,1-9-3.25A4.89,4.89,0,0,1,186,213.57Z" style="fill:#ebebeb"></path><path d="M79.71,374.56a2.67,2.67,0,0,1,1.79,3.82A2.62,2.62,0,0,1,79,379.77a2.65,2.65,0,0,1-2.38-3.18A2.68,2.68,0,0,1,79.71,374.56Z" style="fill:#ebebeb"></path><path d="M260.18,433.92a2.64,2.64,0,0,1-.77,5.21A2.65,2.65,0,0,1,257,436,2.69,2.69,0,0,1,260.18,433.92Z" style="fill:#ebebeb"></path><path d="M410.63,133.3a2.67,2.67,0,0,1,1.79,3.82,2.66,2.66,0,0,1-4.94-1.79A2.69,2.69,0,0,1,410.63,133.3Z" style="fill:#ebebeb"></path><path d="M423,339.89a2.64,2.64,0,1,1-3.15,2A2.67,2.67,0,0,1,423,339.89Z" style="fill:#ebebeb"></path><path d="M274.71,319a2.66,2.66,0,0,1,1.79,3.81,2.65,2.65,0,0,1-4.94-1.78A2.69,2.69,0,0,1,274.71,319Z" style="fill:#ebebeb"></path><path d="M291,188.93a2.67,2.67,0,0,1,2.66,3.27,2.65,2.65,0,0,1-5.22-.53A2.69,2.69,0,0,1,291,188.93Z" style="fill:#ebebeb"></path><path d="M342.24,97.53a2.64,2.64,0,1,1-3.15,2A2.67,2.67,0,0,1,342.24,97.53Z" style="fill:#ebebeb"></path><path d="M434.38,298.47a2.67,2.67,0,0,1,1.79,3.82,2.66,2.66,0,0,1-4.94-1.79A2.69,2.69,0,0,1,434.38,298.47Z" style="fill:#ebebeb"></path><path d="M92.5,168.68a2.66,2.66,0,0,1,1.78,3.81,2.65,2.65,0,0,1-4.93-1.78A2.68,2.68,0,0,1,92.5,168.68Z" style="fill:#ebebeb"></path><path d="M62.1,368.1A1.75,1.75,0,1,1,60,369.44,1.77,1.77,0,0,1,62.1,368.1Z" style="fill:#ebebeb"></path><path d="M449.79,214.41a1.76,1.76,0,0,1,1.18,2.53,1.74,1.74,0,0,1-1.69.92,1.75,1.75,0,1,1,.51-3.45Z" style="fill:#ebebeb"></path><path d="M345.12,421.34a1.75,1.75,0,1,1-2.09,1.34A1.77,1.77,0,0,1,345.12,421.34Z" style="fill:#ebebeb"></path><path d="M74.47,165.29a1.76,1.76,0,0,1,1.18,2.53,1.72,1.72,0,0,1-1.69.92,1.74,1.74,0,0,1-1.58-2.1A1.79,1.79,0,0,1,74.47,165.29Z" style="fill:#ebebeb"></path><path d="M403.38,119.55a1.75,1.75,0,1,1-2.09,1.34A1.77,1.77,0,0,1,403.38,119.55Z" style="fill:#ebebeb"></path><path d="M263.94,330.42a1.75,1.75,0,1,1-2.09,1.34A1.77,1.77,0,0,1,263.94,330.42Z" style="fill:#ebebeb"></path><path d="M181.56,88.06a1.77,1.77,0,0,1,1.19,2.53,1.76,1.76,0,0,1-3.28-1.18A1.79,1.79,0,0,1,181.56,88.06Z" style="fill:#ebebeb"></path></g><g id="freepik--Plants--inject-79"><path d="M365.59,311.86a32.06,32.06,0,0,0-1,13.94c1.46,9.78,8.82,17.51,10.41,27.14-.2,1.15-.44,2.32-.75,3.48a.14.14,0,0,1,0,.06v0h0s0,0,0,0,.05.09.09.11l.18-.4a7.55,7.55,0,0,0,.32-.72c.16-.35.29-.69.42-1,0,0,.08-.16.08-.21,3.58-9.88.29-20.84-1.38-30.87-1-5.73-.55-11.52-1.41-17.23-.2-1.36-.19-3.95-2.16-3.43C368.2,303.34,366.15,310,365.59,311.86Z" style="fill:#455a64"></path><path d="M367,320.29c-.62,11.89,10.34,22.28,7.79,34.16-.08.33-.16.66-.25,1s-.13.46-.2.69h0c0,.09-.06.18-.1.28a.14.14,0,0,1,0,.06v0h0s0,0,0,0,.05.09.09.11h0a.1.1,0,0,0,.1-.07c.13-.35.25-.71.36-1.06a14.9,14.9,0,0,0,.61-2.63s0,0,0,0a38,38,0,0,0-.23-15.91c-1.36-6.75-3.08-13.29-4.31-20.11-.16-.84-.16-4.16-1.51-3.72C367.69,313.69,367.11,318.92,367,320.29Zm.58-1.77c.11-.67,1-5.14,2.08-4.67.66.28.74,3.66.85,4.14.39,1.84.79,3.67,1.18,5.51.84,3.86,1.71,7.72,2.55,11.58a51.08,51.08,0,0,1,1.32,14.29C375,339,365.89,329.31,367.62,318.52Z" style="fill:#fff"></path><path d="M362.75,426c0,.16.13.37.34.24,9-5.8,20.24-1.08,29.56-6.25a48,48,0,0,0,10-8,37.79,37.79,0,0,0,6.1-7.26c.22-.36,1.36-1.83,1.18-2.56-1.43-5.55-15.85,3.84-18.27,5.17-9.43,5.14-18.06,9.84-26.33,16.43-.86.68-1.72,1.39-2.57,2.12C362.74,425.89,362.74,425.94,362.75,426Z" style="fill:#455a64"></path><path d="M362.75,426c.33-.21.65-.42,1-.61,6.19-3,13.08-4,19.74-5.72a37,37,0,0,0,17.44-9.4c.88-.86,4.54-4.16,3.46-5.81-1-1.5-4.65,1.38-5.55,1.89-6.7,3.75-13.25,7.56-20.24,10.79-4.46,2.07-9,4.13-13.24,6.63-.86.68-1.72,1.39-2.57,2.12C362.74,425.89,362.74,425.94,362.75,426Zm4.2-2.51c4.93-2.75,10.1-5.05,15.23-7.48,3.52-1.67,7-3.47,10.34-5.43,1.84-1.07,3.68-2.17,5.54-3.22.93-.53,1.86-1.06,2.8-1.56.47-.26,2-1.15,2.41-.43,1.06,1.93-9.28,11.75-22.11,14.29A79.87,79.87,0,0,0,367,423.48Z" style="fill:#fff"></path><path d="M377.73,408.94a.08.08,0,0,0,0,.12.1.1,0,0,0,.14,0l.55-.54c.69-.68,1.34-1.36,2-2.05l.36-.38a.18.18,0,0,0,.1,0c7.19-7.36,18.09-9.6,24.23-18.13a41.39,41.39,0,0,0,5.77-12.66c.56-1.93,3.33-7.81.91-9.34-1.89-1.19-4.85,1.39-6.08,2.49-3.92,3.48-6.7,8.34-9.43,12.75s-5.11,8.76-7.65,13.15a84.94,84.94,0,0,1-8.05,11.25Q379.17,407.25,377.73,408.94Z" style="fill:#455a64"></path><path d="M377.73,408.94a.08.08,0,0,0,0,.12c.59-.62,1.18-1.24,1.77-1.84l-1.08,1.29c.69-.68,1.34-1.36,2-2.05l1-1.09a114.65,114.65,0,0,1,13.26-11,24.2,24.2,0,0,0,6-5.93c3-4.32,7.7-14.49,6.79-16s-2.78,1.71-3.3,2.42c-4.19,5.71-7.59,11.91-12.09,17.41-3,3.69-6.1,7.35-9.17,11-.77.75-1.53,1.51-2.26,2.29Q379.17,407.25,377.73,408.94Zm29-36.16c.79.34-.41,3.07-.73,3.79a110.18,110.18,0,0,1-5.06,10.29c-2,3.52-4.81,5.84-8.06,8.12a83.62,83.62,0,0,0-7.78,6.18c3-3.45,6.05-6.93,8.87-10.54,2.33-3,4.36-6.22,6.42-9.41,1-1.6,2.06-3.19,3.15-4.74.3-.43,2.48-4,3.19-3.69" style="fill:#fff"></path><path d="M324.11,454.33a.07.07,0,0,0,.07.08s.08,0,.1-.07c0-.23.09-.45.13-.68.16-.84.3-1.68.43-2.51,0-.15.05-.3.07-.45a.26.26,0,0,0,0-.09c1.59-9,8.47-16.19,8.69-25.56a36.71,36.71,0,0,0-2.13-12.22c-.56-1.71-1.49-7.43-4-7.33-2,.08-2.86,3.47-3.22,4.89-1.13,4.54-.72,9.52-.5,14.14s.66,9,1,13.54a75.75,75.75,0,0,1-.24,12.34C324.38,451.7,324.25,453,324.11,454.33Z" style="fill:#455a64"></path><path d="M324.11,454.33a.07.07,0,0,0,.07.08c.12-.75.24-1.5.38-2.25l-.15,1.5c.16-.84.3-1.68.43-2.51.05-.43.09-.86.15-1.29a104.4,104.4,0,0,1,4.21-14.77,21.54,21.54,0,0,0,1.41-7.38c0-4.7-1.64-14.54-3.08-15.22s-1.19,2.66-1.22,3.45c-.2,6.31.43,12.59-.11,18.9-.37,4.25-.79,8.49-1.2,12.74-.19.94-.36,1.88-.5,2.83C324.38,451.7,324.25,453,324.11,454.33Zm1.49-9.43c.5-4.07,1-8.15,1.21-12.23.2-3.39.08-6.77,0-10.17-.05-1.69-.09-3.38-.07-5.07,0-.46-.18-4.18.49-4.32s1.24,2.46,1.37,3.15a101.69,101.69,0,0,1,1.47,10.13c.31,3.59-.6,6.72-1.84,10A75.67,75.67,0,0,0,325.6,444.9Z" style="fill:#fff"></path><path d="M323.07,461.83a1.43,1.43,0,0,0,.7-.24c9.21-3.53,19.28-3.69,28.54-7.21a26.8,26.8,0,0,0,10.75-7.08c1.24-1.4,5.52-6.23,4.57-8.47-2.82-6.74-33.9,14.48-44.12,22.11a1.66,1.66,0,0,0-.47.32C322.73,461.55,322.78,461.81,323.07,461.83Z" style="fill:#455a64"></path><path d="M323.07,461.83l2.06-1.13c2.23-.9,4.49-1.75,6.79-2.48,3.65-1.15,7.4-1.83,11.11-2.76a35.4,35.4,0,0,0,15.53-8.3c.95-.88,3.79-3.22,3.18-4.86s-2.89,0-3.71.37c-11.69,5.58-23.06,12-34.39,18.29a5.59,5.59,0,0,0-.6.3C322.73,461.55,322.78,461.81,323.07,461.83Zm5.42-3q6.66-3.63,13.33-7.19c3.49-1.87,7-3.71,10.48-5.55,1.73-.9,3.44-1.83,5.19-2.71.69-.34,3.35-1.7,3.6-.74s-1.59,2.76-1.92,3.1c-5.25,5.4-12,8.18-19.21,9.79A83.6,83.6,0,0,0,328.49,458.86Z" style="fill:#fff"></path><path d="M367.19,384a.43.43,0,0,0,0,.36.44.44,0,0,0,.4.28.5.5,0,0,0,.27,0,.22.22,0,0,0,.16-.06c4.35-4.25,11-8.21,15.46-12.29a47.62,47.62,0,0,0,8.63-10.88,64.34,64.34,0,0,0,6.36-14.16c.71-2.35,2.74-7.92.82-10.24-3.93-4.77-11.88,12.58-13,14.52Q376.65,367.73,367.19,384Z" style="fill:#455a64"></path><path d="M367.15,384.36a.44.44,0,0,0,.4.28c.26-.36.51-.74.77-1.1,1.7-2,3.4-4,5.22-5.9,2.95-3.11,6.32-5.8,9.17-9,5-5.58,14.27-23.34,11.59-25.11-1.39-.92-3.12,2.74-3.63,3.6-2,3.42-3.55,7.07-5.6,10.47-2.14,3.58-4.49,7-6.83,10.46-3.61,5.3-7.24,10.58-10.79,15.93Zm3.57-4.3c3.21-4.69,6.38-9.4,9.56-14.1,2.19-3.26,4.36-6.54,6.32-9.94,1.08-1.91,2.06-3.87,3-5.84.48-.95,1-1.92,1.51-2.84s2.2-4.12,3-2.9-1.58,6.42-2.13,7.64c-.91,2-1.83,3.93-2.84,5.87A51.19,51.19,0,0,1,382,368.61c-2.88,3.17-6.24,5.87-9.14,9C372.16,378.43,371.43,379.23,370.72,380.06Z" style="fill:#fff"></path><path d="M315.05,392.66c8,8.69,20.91,11.1,25.62,26.34a.06.06,0,0,0,.11,0,0,0,0,0,0,0,0c-.29-1.54-.63-3.07-1-4.59a66.78,66.78,0,0,0-11.06-22.85A50.45,50.45,0,0,0,317.89,381c-2.11-1.49-6.67-5.3-9.3-4.71C302.91,377.51,313.59,391.08,315.05,392.66Z" style="fill:#455a64"></path><path d="M315.53,387.3c3.22,6.32,9.61,10.42,14.5,15.34a57.75,57.75,0,0,1,8.85,11.19c.66,1.72,1.29,3.44,1.9,5.19a0,0,0,0,0,0,0c-.29-1.54-.63-3.07-1-4.59l-.14-.25A70.84,70.84,0,0,0,333,400.84a72.67,72.67,0,0,0-13.19-15.64c-.88-.8-3.79-4.24-5.29-3.36S315.08,386.42,315.53,387.3Zm-.54-4.9c1.1-.42,6.23,4.68,8.24,6.76a73.27,73.27,0,0,1,11.15,14.93,70.3,70.3,0,0,1,3.51,7.27,58.24,58.24,0,0,0-5.79-7.25c-4.41-4.72-9.93-8.51-13.93-13.58a20.79,20.79,0,0,1-2.65-4.32C315.25,385.59,314,382.77,315,382.4Z" style="fill:#fff"></path><path d="M325,345.22a54.72,54.72,0,0,0-.09,12.79,53.34,53.34,0,0,0,8.37,23.06c.08.12.15.25.24.38.07.4.15.81.25,1.2a1.4,1.4,0,0,0,.06.28l0,.06h0a.1.1,0,0,0,.18-.08c0-.5,0-1,0-1.5.17-10.3,2.07-20.38.69-30.7-.31-2.25-1.78-17-6.92-14.47C325.39,337.42,325.23,343.06,325,345.22Z" style="fill:#455a64"></path><path d="M327,347.29c-.35,6.34,1.31,13.15,2.62,19.34a144.4,144.4,0,0,0,3.61,14.44c.11.39.24.78.37,1.16,0,.14.08.28.12.42a1.3,1.3,0,0,0,.08.34h0a.1.1,0,0,0,.18-.08c0-.5,0-1,0-1.5s-.21-.76-.3-1.14a120.54,120.54,0,0,1-.64-16.91c0-3.07,0-6.12-.29-9.18a40.71,40.71,0,0,0-1.31-8.92c-.4-1.23-1.23-3.66-3-2.76C327.07,343.26,327.11,345.94,327,347.29Zm3.79-2.15c1.09,3.34,1.25,7.25,1.48,10.74s.2,6.7.17,10a106.23,106.23,0,0,0,.25,10.7c-1.22-4.46-2.39-8.93-3.26-13.52-.68-3.58-1.28-7.19-1.7-10.8a27.18,27.18,0,0,1-.18-5.63,14.65,14.65,0,0,1,.27-2C328.29,342.62,330.32,343.64,330.81,345.14Z" style="fill:#fff"></path><path d="M388.2,318.47c0,.16-.06.32-.1.49a.3.3,0,0,0,.38.34.31.31,0,0,0,.23-.24c.06-.29.14-.6.2-.89h0c.05-.24.11-.48.16-.72.23-.4.46-.79.72-1.17,2.73-4.13,7.46-7.63,10.68-11.15a65.37,65.37,0,0,0,7.92-10.31,31.84,31.84,0,0,0,4.6-12.29c.15-1.18.71-4.16-.77-4.91-1.86-.94-4.71,2.64-5.72,3.57a53.6,53.6,0,0,0-8.9,11.06C392.61,300.36,390.05,309.21,388.2,318.47Z" style="fill:#455a64"></path><path d="M389,316.42a19.11,19.11,0,0,0-.83,2.05c0,.16-.06.32-.1.49a.3.3,0,0,0,.38.34,3.59,3.59,0,0,1,.12-.35l.31-.78h0c.27-.64.57-1.27.88-1.89a43.5,43.5,0,0,1,4-6.37c2.63-3.5,5.38-6.9,7.87-10.49,1.25-1.81,10.84-15.69,7.07-17-.71-.25-1.4.7-1.78,1.09a29.48,29.48,0,0,0-3.45,4.65c-2.4,3.76-4.67,7.63-6.81,11.55A124,124,0,0,0,389,316.42Zm6.87-14.34c1.83-3.48,3.77-6.88,5.8-10.24,1-1.63,2-3.29,3.06-4.87.53-.78,3.23-4.3,4-3.84,1.08.68-1.49,6.16-2.27,7.64-.9,1.68-1.87,3.32-2.89,4.93-2.05,3.25-4.31,6.35-6.64,9.4-2.06,2.7-4.51,5.56-6.43,8.67A122.4,122.4,0,0,1,395.9,302.08Z" style="fill:#fff"></path><path d="M355.22,366.78c0,.16.11.31.16.48a.3.3,0,0,0,.5.1A.31.31,0,0,0,356,367l-.27-.88h0c-.08-.24-.14-.47-.22-.71,0-.46,0-.91,0-1.37.29-4.95,2.63-10.35,3.64-15a65.89,65.89,0,0,0,1.69-12.89,32.09,32.09,0,0,0-2.19-12.94c-.47-1.1-1.48-4-3.13-3.86-2.09.12-2.76,4.65-3.16,6a53.35,53.35,0,0,0-2.15,14C350,348.91,352.18,357.85,355.22,366.78Z" style="fill:#455a64"></path><path d="M354.91,364.59a19.56,19.56,0,0,0,.31,2.19c0,.16.11.31.16.48a.3.3,0,0,0,.5.1c0-.12-.06-.24-.08-.36,0-.28-.08-.56-.11-.84h0c-.09-.7-.15-1.39-.19-2.08a42.52,42.52,0,0,1,.27-7.52c.51-4.34,1.18-8.66,1.53-13,.18-2.18,1.51-19-2.42-18.26-.74.13-.85,1.3-1,1.84a29.2,29.2,0,0,0-.65,5.75c-.19,4.46-.21,8.94-.1,13.4A125,125,0,0,0,354.91,364.59Zm-1.26-15.85c-.16-3.92-.18-7.85-.11-11.77,0-1.91.06-3.83.2-5.74.06-1,.63-5.35,1.5-5.32,1.28,0,1.81,6.08,1.87,7.75.07,1.91.06,3.81,0,5.72-.15,3.83-.56,7.65-1,11.46-.42,3.36-1.11,7.07-1.21,10.73A125.36,125.36,0,0,1,353.65,348.74Z" style="fill:#fff"></path><path d="M332.75,373.69a240.6,240.6,0,0,0,5.42,26.44c1.83,6.73,3.67,13.57,3.93,20.58.31,8.38-2.11,17.68-6.37,25.72q3.69-4.12,7.3-8.36c4.9-5.75,9.77-11.65,13.25-18.4.34-.66.66-1.34,1-2a.18.18,0,0,1,0-.16A90.89,90.89,0,0,0,359,390.35a74.79,74.79,0,0,0-5.91-13.58C350.61,372.3,348.25,368,347,363c-.08-.28.32-.46.43-.17,2.5,6.57,7.65,13,10.68,19.77-.17-1.13-.36-2.25-.56-3.38-2-10.77-5.71-21.6-1.76-32.38.13-.36.64-.11.53.24-3.71,12,2.13,25.22,3.86,37.14,1.29,8.87,1.73,18.43-.42,27.26a146,146,0,0,0,4-14.91c6.78-30.24,14.62-60.32,29.33-87.8.14-.27.57-.09.43.19-15.05,29.83-21,62.25-28.86,94.39-.08.37-.18.73-.27,1.09A60.47,60.47,0,0,1,373.74,393c.17-.17.45,0,.29.24-4.3,5.52-7.6,11.57-11.48,17.34a62.86,62.86,0,0,1-5.63,12.94,101.5,101.5,0,0,1-10,13.69c6.14-5.15,12.34-10.23,18.11-15.84a274.34,274.34,0,0,0,24.56-27c.11-.14.31,0,.21.17a230,230,0,0,1-24.43,29.16c-7.65,7.6-15.83,15.35-25,21.18-8.77,10.09-18.14,20.23-29.23,27.63a.49.49,0,0,1-.57-.79c2-1.81,4-3.65,6-5.51,1.91-4.27,4.57-8.2,6.27-12.62a70.35,70.35,0,0,0,4.07-16.09c.05-.41.64-.3.62.09-.46,7.53-2.15,16.8-6.17,24q4.2-4.15,8.25-8.46c7.21-11,11.9-24.08,10.32-37.24-.81-6.76-2.75-13.3-4.34-19.9a146.24,146.24,0,0,1-3.31-22.24A.25.25,0,0,1,332.75,373.69Z" style="fill:#455a64"></path><path d="M176,340.7c1.44,4,1.15,8.91,1,13.07a104.16,104.16,0,0,1-1.66,14.2c-.79,4.37-1.79,8.7-2.87,13l0,.12-.21.84c0,.35-.09.7-.15,1.06a.21.21,0,0,1-.19.18.18.18,0,0,1-.22-.2c0-.19.05-.38.06-.57.7-8.07-4-15.44-4.24-23.44-.15-4.38.9-8.77,1.72-13,.45-2.37.57-5.44,1.49-7.66.24-.6.3-1.23,1-1.55C173.69,335.74,175.52,339.31,176,340.7Z" style="fill:#455a64"></path><path d="M174.11,343.69c-1.26-1-2,1.85-2.26,2.64-1.66,5.33-2.59,11.68-1.64,17.2,1,6.06,2.14,12.13,1.69,18.27l-.18.6c0,.19,0,.38-.06.57a.18.18,0,0,0,.22.2,2.25,2.25,0,0,0,.06-.36c.18-.57.34-1.15.49-1.72l0-.12a118.38,118.38,0,0,0,2.12-12.58,81,81,0,0,0,.94-17.8,40.67,40.67,0,0,0-.53-4.28C174.87,345.6,174.74,344.2,174.11,343.69Zm.72,3.6c.23,1.5.38,3,.46,4.52a83.56,83.56,0,0,1-.91,15.64,116.26,116.26,0,0,1-2.22,13.4,47.3,47.3,0,0,0-.45-10.49c-.36-2.62-.91-5.2-1.3-7.82a29.29,29.29,0,0,1,.31-8.81,37,37,0,0,1,1.77-8.15c.2-.52.79-1.67,1.24-1.59C174.53,344.13,174.74,346.7,174.83,347.29Z" style="fill:#fff"></path><path d="M139.78,402.35s0,0,0,0" style="fill:#455a64"></path><path d="M172.1,458.1a.19.19,0,0,1,.09.24h0a.23.23,0,0,1-.17.16.3.3,0,0,1-.16,0c-4.94-2.49-9.66-6.47-15.38-6.75-4.48-.24-8.32.32-12.57-1.52a33.74,33.74,0,0,1-11.38-8.16,35.1,35.1,0,0,1-3.87-5.12c-.54-.88-2.31-3.06-2.06-4.18,1.15-5.25,16.73,4.09,18.8,5.35,9.16,5.57,18.48,11.84,26.12,19.41a.07.07,0,0,1,0,.08.15.15,0,0,1-.06.09C171.69,457.82,171.9,458,172.1,458.1Z" style="fill:#455a64"></path><path d="M172.1,458.1c-.2-.15-.41-.28-.61-.42a.15.15,0,0,0,.06-.09c-5.07-3.84-10.44-7.32-15.83-10.68a158.18,158.18,0,0,0-17.95-10.09c-.86-.39-4.39-2.5-5.14-1.13s2.94,4.51,3.72,5.22c4.62,4.13,10.65,6,16.48,7.73,3.79,1.11,7.5,2.18,10.89,4.27,2.85,1.75,5.48,3.82,8.3,5.6a.23.23,0,0,0,.17-.16c-1.45-.92-2.85-1.93-4.24-2.93l4.24,2.92A.19.19,0,0,0,172.1,458.1Zm-12.77-7.8c-5.67-2.21-11.75-3.18-17.21-6a24.19,24.19,0,0,1-7.05-5.24c-.38-.41-2.23-2.27-1.81-3,.28-.5,1.75,0,2,0a43.2,43.2,0,0,1,4.72,2.1c5.33,2.72,10.52,5.8,15.6,9,2.83,1.75,5.59,3.58,8.34,5.44A28.25,28.25,0,0,0,159.33,450.3Z" style="fill:#fff"></path><path d="M149.57,349.44c.61,4.74-.34,9.68-1.63,14.24-3,10.53-8.78,20.33-10.61,31.2-.07.43-.14.85-.2,1.28.1.56,0,.42-.15-.24h0c-.79-2.89-3.54-15.64-2.28-24.78.79-5.71,2.75-11.1,4.72-16.48,1.13-3.07,2.23-6.15,3.38-9.21.37-1,.89-3.78,2.38-4C148,341,149.32,347.58,149.57,349.44Z" style="fill:#455a64"></path><path d="M144.58,350.39a1,1,0,0,0-1.27.33,4.86,4.86,0,0,0-.62,1.87c-.3,1.12-.59,2.23-.87,3.35-2,7.72-4.68,15.6-5.43,23.57A66.64,66.64,0,0,0,137,395.4v.52h0c.18.66.25.8.15.24.06-.43.13-.85.2-1.28,0-.59,0-1.19.06-1.78a48.46,48.46,0,0,1,2.69-12,120.29,120.29,0,0,0,5.44-22.74,23.49,23.49,0,0,0,.18-5.23C145.61,352.36,145.42,350.81,144.58,350.39Zm.7,2.49a7.46,7.46,0,0,1,.11,1.15,20.37,20.37,0,0,1-.06,2.47,58.83,58.83,0,0,1-.79,5.9,165.73,165.73,0,0,1-5.4,20.44A43.79,43.79,0,0,0,137,393.08a86.37,86.37,0,0,1-.44-8.79c0-7.53,2.12-14.65,4-21.87l1.38-5.37.69-2.68L143,353c.23-.9.1-1.28,1.1-1.55C145.3,351.14,145.11,351.84,145.28,352.88Z" style="fill:#fff"></path><path d="M157.07,393.5A59.76,59.76,0,0,1,160,404.32c1.23,7.39.09,15.94,2,23.31.18.48.33,1,.47,1.47.05.18.1.37.14.55a.09.09,0,0,1-.17.06l-.47-.93s0,0,0,0l-.25-.49c-3.66-7.18-8.37-13.73-9.93-21.79-1-5-2.49-18.62.78-19.66C154,386.36,156.27,391.38,157.07,393.5Z" style="fill:#455a64"></path><path d="M154.1,394.23c-.78.37-.76,1.9-.8,2.54a29.93,29.93,0,0,0,.18,5.09,51.44,51.44,0,0,0,1.84,9.29,101.62,101.62,0,0,0,6.37,17.12l.25.49s0,0,0,0l.47.93a.09.09,0,0,0,.17-.06c0-.18-.09-.37-.14-.55-2.41-6.32-3.42-13-4.26-19.69C158,407.9,156.78,393,154.1,394.23Zm2.44,6.06c.24,1.41.43,2.83.62,4.25.44,3.3.81,6.62,1.3,9.92a75.07,75.07,0,0,0,2.24,10.68A126.86,126.86,0,0,1,156.22,413a68.17,68.17,0,0,1-2-8.32,34.12,34.12,0,0,1-.47-4.62c0-.74-.35-5,.54-5.39C155.36,394.16,156.44,399.68,156.54,400.29Z" style="fill:#fff"></path><path d="M188.32,378.91c1.81,2.22,1,6.65,0,9a21.28,21.28,0,0,1-6.76,8.18c-4.07,3.22-8.62,5.71-12,9.68s-2.31,2.75-4.69,7.8c-.05.1-.14.1-.22,0a1,1,0,0,1-.15-.81s0-.09,0-.14c2.2-8.29,6.45-14.83,12.1-21.3,3.2-3.68,5.14-8.33,8.47-11.87C186.26,378.15,187.08,377.38,188.32,378.91Z" style="fill:#455a64"></path><path d="M186.41,383.27c-1.22-.57-2.76,1.9-3.39,2.8a50.92,50.92,0,0,1-5.83,7.42,62.89,62.89,0,0,0-5.69,6.08,41.64,41.64,0,0,0-6.18,11.11c-.33.67-.62,1.37-.89,2.09a1,1,0,0,0,.15.81l.09-.28a28.52,28.52,0,0,1,10.06-13c4.65-3.52,9-7.43,11.51-12.84C186.69,386.53,187.54,383.81,186.41,383.27Zm-.2,3.53a23.81,23.81,0,0,1-1.38,2.71,28.33,28.33,0,0,1-3.29,4.42,51.07,51.07,0,0,1-7.33,6.36,31.08,31.08,0,0,0-7.67,8.16,42.31,42.31,0,0,1,5.77-9.43c2.1-2.57,4.66-4.65,6.82-7.14,1-1.16,1.87-2.39,2.75-3.63.47-.67.94-1.35,1.41-2s1.74-2.71,2.63-2.54C187.08,383.92,186.38,386.43,186.21,386.8Z" style="fill:#fff"></path><path d="M112.3,358c7.33,8.29,14.16,17,20.65,26a.28.28,0,0,1,0,.34.06.06,0,0,1,0,.06l.12.17a.12.12,0,0,1,0,.17l0,0h0a.18.18,0,0,1-.13,0c-4.58-4.48-8.88-8.68-14.64-11.65-5.27-2.71-10.46-5-15-8.81-3.9-3.3-15-19.57-13.18-23.45C91.18,338.12,106.45,351.38,112.3,358Z" style="fill:#455a64"></path><path d="M103.21,352.43c-1-.92-3.77-4.57-5.56-3.83s1.07,4.42,1.6,5.2a52.7,52.7,0,0,0,6.52,8.07c2.48,2.41,5.42,4,8.28,5.9,7,4.65,13.24,10.7,18.9,16.92h0l0,0a.12.12,0,0,0,0-.17l-.12-.17a.06.06,0,0,0,0-.06C124.1,372.74,113.6,362.53,103.21,352.43Zm29.12,31.47a120.43,120.43,0,0,0-12.49-12.15c-5.17-4.33-11.42-7.12-15.89-12.27a40.38,40.38,0,0,1-5.87-8.14c-.2-.39-.93-1.71-.43-2.24s1.7.12,3.28,1.56c1.3,1.21,2.55,2.49,3.82,3.73,5,4.89,10,9.8,14.78,14.89Q126.22,376.35,132.33,383.9Z" style="fill:#fff"></path><path d="M142.83,418.69a.18.18,0,0,1,0,.12.19.19,0,0,1-.24.13l-.7-.22-.06,0c-5.25-.68-9.51.21-14.56,1.5a23.23,23.23,0,0,1-11.36,0,38.64,38.64,0,0,1-11.45-5.17c-1.44-.92-6.05-3-5.3-5.52,1.24-4.16,15.23,1.26,17.65,2a110,110,0,0,0,13.1,3.51c4.39.85,8.78,1.57,12.86,3.47A.15.15,0,0,1,142.83,418.69Z" style="fill:#455a64"></path><path d="M140.05,418.06s0,0,0,0c-2.54-.58-5.07-1.27-7.62-1.71-2.86-.5-5.79-.44-8.67-.93-5.38-.94-10.49-2.89-15.81-4.07-.7-.15-2.06-.43-1.7.76.15.51.9.93,1.28,1.2a25.2,25.2,0,0,0,3.75,2.2c4.44,2.11,9.58,3.66,14.53,3.44,5.74-.27,11.32-1.35,17-.13a.18.18,0,0,0,0-.12A18,18,0,0,0,140.05,418.06Zm-12.43.35a31.62,31.62,0,0,1-18.06-4.26,25.06,25.06,0,0,1-2.31-1.54c-.45-.37-1.09-1.17.6-.95a9.63,9.63,0,0,1,1.18.28c1.37.34,2.73.72,4.1,1.11,2.91.83,5.81,1.71,8.78,2.33a54.69,54.69,0,0,0,8,.95,65.29,65.29,0,0,1,9.6,1.64C135.57,417.49,131.52,418.09,127.62,418.41Z" style="fill:#fff"></path><path d="M127.7,407.32a.39.39,0,0,1,0,.24.26.26,0,0,1,0,.12.3.3,0,0,1-.09.13l0,0a.34.34,0,0,1-.37,0,14.57,14.57,0,0,1-2.23-1c-8.7-3.32-17.6-6.81-24.68-13a56.8,56.8,0,0,1-9.45-10.72c-1.33-1.92-5-6-3.79-8.67s3.59-1,5.22.14a123.56,123.56,0,0,1,12.17,9.19,67.17,67.17,0,0,1,10.18,11.07c3.56,4.85,7,9.89,12.84,12.09A.41.41,0,0,1,127.7,407.32Z" style="fill:#455a64"></path><path d="M111.65,395a146.36,146.36,0,0,0-15.89-14.39c-.72-.58-2.82-2.07-3.15-.4-.37,2,2.53,4.28,3.64,5.46A112.8,112.8,0,0,0,109.85,398a62.67,62.67,0,0,0,17.81,9.64.26.26,0,0,0,0-.12c-10.53-3.9-19.65-10.75-27.62-18.54-1.91-1.89-3.86-3.79-5.61-5.82-.28-.33-1.9-2.52-1.27-3.12s2.82,1.27,3.09,1.5l3.79,3.16a172.16,172.16,0,0,1,13.39,12.8,42.44,42.44,0,0,0,14.23,10,.39.39,0,0,0,0-.24C121.33,404.51,116.4,400.09,111.65,395Z" style="fill:#fff"></path><path d="M111.72,316.9a42.33,42.33,0,0,1,6.87,13c2.12,7.34,2,15,3,22.53a.14.14,0,0,0,0,.09,48.78,48.78,0,0,0,1.19,6.06c.11.42.23.85.35,1.28a.24.24,0,0,1,0,.26.31.31,0,0,1-.17.09.37.37,0,0,1-.18,0h0a.31.31,0,0,1-.2-.2c-.21-.6-.4-1.21-.58-1.82a.12.12,0,0,1-.09-.08c-4.49-9.37-9.58-18.85-14.68-28.12a74.68,74.68,0,0,1-5.79-12.83c-.86-2.64-1.91-6.72,0-9.16a.6.6,0,0,1,.51-.28C106.22,308.46,109.4,313.73,111.72,316.9Z" style="fill:#455a64"></path><path d="M107,317.5c-2-.66-1.61,1.74-1.28,3a84.71,84.71,0,0,0,3.58,9.47q2.13,5.25,4.42,10.43c2.88,6.51,6.9,13,9,19.83,0,0,0,0,0,0h0a.37.37,0,0,0,.18,0,.31.31,0,0,0,.17-.09c-.1-.52-.21-1-.31-1.54-.41-2-.8-4-1.19-6.06a.14.14,0,0,1,0-.09c-1.93-9.73-4-19.37-9.15-28.29C111.29,322.09,109.53,318.3,107,317.5Zm6.08,8.5a70.87,70.87,0,0,1,6.45,17.82c1.11,4.92,1.87,9.91,2.89,14.84-1.41-4-3.48-7.73-5.27-11.57q-4.2-9-7.92-18.28c-.6-1.48-1.19-3-1.76-4.46-.51-1.32-1.61-3.37-1.61-4.82,0-2.8,2.32-.9,3.08-.07a16,16,0,0,1,1.71,2.39C111.55,323.2,112.35,324.59,113.11,326Z" style="fill:#fff"></path><path d="M173.73,367.48a203,203,0,0,1-5.55,27.09c-2.28,8.16-4.65,16.32-5.75,24.74-1.48,11.18-.47,23.44,5.23,33.16a131.9,131.9,0,0,1-22.45-37.53c-9.19-23.07-17.51-46.78-28.66-69-.18-.37-.7-.08-.56.29,4.57,12.13,9.94,24,14.62,36.06s9,24.18,13.82,36.11c.52,1.29,1.07,2.56,1.63,3.83-7.12-8.83-17.56-15.33-27.81-19.1-.13-.05-.18.15-.06.2A72.33,72.33,0,0,1,138,416.47c5.1,4.7,9,10.15,13.09,15.66a111,111,0,0,0,38.77,40.46.16.16,0,0,0,.16-.27A111.72,111.72,0,0,1,172,457.27c-9.16-12.13-9.59-28.33-6.86-43,1.43-7.72,3.48-15.3,5.3-22.93s3.88-15.79,3.69-23.8A.22.22,0,0,0,173.73,367.48Z" style="fill:#455a64"></path></g><g id="freepik--Character--inject-79"><path d="M350.88,472H264.75c-.16-.57-.31-1.15-.46-1.72-15.27-59,1.65-72,30.1-52.83a147.09,147.09,0,0,1,23.34,20.32l6,6.29C333.1,453.72,342.17,463.05,350.88,472Z" style="fill:#d3766a"></path><path d="M372.42,472H250.66q-.6-4.18-1.1-8.19c-.53-4.13-1-8.1-1.34-11.88a175.25,175.25,0,0,1-.85-25.45,71.79,71.79,0,0,1,1.3-10.73c.15-.79.33-1.55.52-2.28.07-.25.14-.49.2-.73.21-.71.41-1.41.64-2.06.07-.22.16-.43.23-.66.16-.42.33-.84.5-1.25a19.33,19.33,0,0,1,4.88-7.19,12.79,12.79,0,0,1,1.23-1l.44-.29a9.77,9.77,0,0,1,.88-.53,14.33,14.33,0,0,1,2.91-1.19,18.28,18.28,0,0,1,5.76-.66l.75,0c6.9.42,15.63,3.8,26.27,9.93q7.28,4.2,15.78,10.1C329.23,431.53,351.74,451.85,372.42,472Z" style="fill:#FF7D7F"></path><path d="M248.86,414.82c.06-.3.13-.6.21-.89.43.09.86.17,1.3.23,3.07.47,7.68-.25,8.34-3.49.57-2.85-2.51-5.56-5.07-7,.2-.26.41-.5.62-.74,3.84,2.24,7.89,6.75,4.1,10.28C255.72,415.65,252.31,415.54,248.86,414.82Zm19.43,27.27c-5.69.14-10.48,4.09-12.71,8.4-2.94,5.7-2.29,12.19-2.51,18.27,0,1.06-.09,2.13-.19,3.19h1.06c.44-5.71-.23-11.54,1.18-17.16,1.36-5.4,5.82-11.35,12.79-11.75,6.38-.37,10.87,4.74,11.85,9.74,1.3,6.66-2.79,13.13-6,18.91a1.35,1.35,0,0,0-.15.26h1.16c.94-1.69,1.91-3.35,2.77-5,2.68-5.21,4.83-11.26,2.47-16.88A12.62,12.62,0,0,0,268.29,442.09Zm26.95,4a33.24,33.24,0,0,0-12.64-10.92c-5.32-2.65-11.32-3.68-17.35-4.15s-12.05-.4-18-1.06c0,.3,0,.62,0,.93,2.76.31,5.55.44,8.3.57,6.35.28,12.83.38,19,1.83a33.82,33.82,0,0,1,15.9,8.66A29.46,29.46,0,0,1,297.89,472H299A30.28,30.28,0,0,0,295.24,446Zm-6.13-36.69a13.87,13.87,0,0,1-8.19,3.44,10.74,10.74,0,0,1-8-3.52c-3.12-3.24-4.08-7.31-5.15-11.33h-.14l-.75,0h-.22c1.39,5.06,2.69,10.52,7.67,13.88,4.53,3,10,2.15,14.24-.78a30.85,30.85,0,0,0,4.32-3.7l-.9-.51A35.11,35.11,0,0,1,289.11,409.35Zm36.15,20.3c-3.55,2.07-6.75,4.73-10.9,5.85-3.16.85-6.92.76-9.29-1.5a7.68,7.68,0,0,1-1.82-7.21c.73-3.61,3.25-6.44,5.92-9.16l-.76-.53c-4,4.14-7.71,8.33-6.13,14.12a7.41,7.41,0,0,0,4.26,4.9,12.68,12.68,0,0,0,8.51.17c4.15-1.23,7.37-4,11-6Zm16,33.68c-4.54,3.28-9.87,6.22-16,6-2.58-.1-5.3-.86-6.88-2.75-2-2.45-1.52-5.79.11-8.29,2.85-4.39,8.74-6.61,13.77-8.59a40.17,40.17,0,0,0,10.35-5.43l-.78-.69a23.71,23.71,0,0,1-2.33,1.66c-4.82,3-10.65,4.4-15.63,7.18-4.42,2.46-8.48,6.42-7.84,11.31.59,4.53,5.41,6.63,10.2,6.56,5.77-.09,10.74-2.73,15.11-5.79s8.18-6.74,12.36-10.25l-.71-.65C349,456.88,345.28,460.42,341.26,463.33Zm28.4,5.94c-5,.58-10.06,1-14.66,2.34l-1.08.34h3.45a77.83,77.83,0,0,1,8.6-1.33c1.52-.18,3-.34,4.54-.53Z" style="fill:#fff;opacity:0.5"></path><path d="M359.24,472H250.67q-.6-4.18-1.11-8.19-.78-6.21-1.33-11.88a176.93,176.93,0,0,1-.86-25.45,74.34,74.34,0,0,1,1.3-10.73c.16-.79.34-1.55.52-2.28.07-.25.14-.49.2-.73.21-.71.41-1.41.64-2.06.07-.22.16-.43.23-.66.16-.42.33-.84.5-1.25a19.33,19.33,0,0,1,4.88-7.19,12.79,12.79,0,0,1,1.23-1l.44-.29c.29-.19.58-.36.88-.53a14.33,14.33,0,0,1,2.91-1.19,18.84,18.84,0,0,1,5.76-.66l.75,0a41,41,0,0,1,12.13,3Z" style="opacity:0.1"></path><path d="M344.2,472H137c19.38-28.33,42.49-53.3,70-71.24,17.45-11.39,58.88-15.14,86.88,7.15l.61.49c2.53,2.07,14.61,16.37,29.28,35.66C330.28,452.56,337.29,462.09,344.2,472Z" style="fill:#FF7D7F"></path><path d="M184,467.23a39.18,39.18,0,0,1,9.28,4.72h-1.86c-5.16-3.25-12.47-6.86-18.46-3.73a8.62,8.62,0,0,0-3.82,3.73h-1.09a10.18,10.18,0,0,1,.61-1.11C171.87,465.91,178.42,465.37,184,467.23Zm-28.31-20-.93,1.12c.82,4,2.41,8,3.36,12a19.81,19.81,0,0,1-.32,11.66h1.08a17.59,17.59,0,0,0,1-4.86c.4-5.89-2.19-11.48-3.62-17.14A24.38,24.38,0,0,1,155.73,447.2Zm37.55-36.68-1.37,1.07a21.64,21.64,0,0,0-.06,10.06c1.37,6.46,4.74,12.43,6.33,18.84,1.37,5.56,1.21,12-3.07,16.68-3.52,3.83-10.34,5.52-15.32,2.77-6.24-3.44-4.06-10.95-1.2-15.6s7.58-9.7,7.2-15.43c-.24-3.57-2.8-5.87-6.22-6.79l-.78.72a11,11,0,0,1,2,.62c3.3,1.44,4.34,4.57,3.82,7.6-1,5.91-6.19,10.42-8.56,15.87-1.92,4.4-2.27,10.13,2.42,13.32,4,2.71,9.93,2.44,14.08.19,4.93-2.68,7.13-7.92,7.46-12.75C200.83,435,188.66,423.19,193.28,410.52Zm11.39,51.21a45.07,45.07,0,0,1,7.86-5.41,20.42,20.42,0,0,1,10.34-2.08c3.28.13,6.58.64,9.84.19,5.48-.76,9.58-5,9-9.93-.53-4.5-5.42-8-10.55-7.86-2.84.06-5.48,1.28-7.94,2.38s-5.31,2.57-8.21,2.13c-6.37-1-5.29-8.19-4.05-12.1,2-6.33,4.53-12.53,4.58-19.18,0-3.82-1.08-9-5.33-11-.37.18-.72.37-1.07.57a8.1,8.1,0,0,1,4.37,4.72,17.91,17.91,0,0,1,.78,8.74A51.25,51.25,0,0,1,211.93,423a70.63,70.63,0,0,0-2.67,8.48c-.73,3.81-.45,8.88,4.5,10.39,5.4,1.64,10.48-2.92,15.41-4,6.2-1.38,12.57,3.37,11.37,9a8.51,8.51,0,0,1-5.63,6.16c-3.25,1.12-6.86.67-10.24.44a24.51,24.51,0,0,0-9.95,1,29.6,29.6,0,0,0-7.63,4.25c-3.5,2.56-10.39,7.12-6.15,11.5a7.61,7.61,0,0,0,3,1.85,10.82,10.82,0,0,0,3.33.65,10.53,10.53,0,0,0,4-.65,16.94,16.94,0,0,0,3.49-1.73c2.62-1.64,4.79-3.76,7.41-5.39s6.27-3.17,9.64-2.28c4.66,1.23,5.84,5.49,5.24,9.4h1.14c.5-3.91-.88-8.46-5.34-10.06-6.06-2.18-11.72,2.38-15.89,5.57-2.35,1.81-5.13,3.84-8.37,4.18-2.57.26-5.66-.59-7.15-2.52C199.22,466.28,202.39,463.55,204.67,461.73Zm63.62-19.64c-5.69.14-10.48,4.09-12.71,8.4-2.94,5.7-2.29,12.19-2.51,18.27,0,1.06-.09,2.13-.19,3.19h1.06c.44-5.71-.23-11.54,1.18-17.16,1.36-5.4,5.82-11.35,12.79-11.75,6.38-.37,10.87,4.74,11.85,9.74,1.3,6.66-2.79,13.13-6,18.91a1.35,1.35,0,0,0-.15.26h1.16c.94-1.69,1.91-3.35,2.77-5,2.68-5.21,4.83-11.26,2.47-16.88A12.62,12.62,0,0,0,268.29,442.09Zm14.31-7c-5.32-2.65-11.32-3.68-17.35-4.15-6.36-.5-12.8-.39-19.11-1.2-5.81-.74-12.59-2.42-16.5-6.5-2.49-2.59-1.8-6,.89-8.25s6.68-2.58,10.22-2.1c5.48.74,12.83,4.72,17.61.29,4.26-4-1.38-9.15-5.48-11-4.94-2.22-10.77-2.41-16.21-2.52a69,69,0,0,1-9.1-.32c-1.76-.27-3.41-1-4-2.57a4.91,4.91,0,0,1-.1-2.79l-1.15.29a6.15,6.15,0,0,0,.08,2.3c.59,2.41,3,3.49,5.62,3.77,5.91.63,11.9,0,17.81.87a23.19,23.19,0,0,1,7.68,2.35c2.58,1.42,5.78,4.16,5.2,7.07-.66,3.24-5.27,4-8.34,3.49-3.39-.51-6.51-1.82-9.92-2.22-5.65-.64-12.57,1.35-13.42,7-.8,5.19,6.11,8.5,10.81,10.05,5.62,1.85,11.74,2.19,17.69,2.46,6.35.28,12.83.38,19,1.83a33.82,33.82,0,0,1,15.9,8.66A29.46,29.46,0,0,1,297.89,472H299A30.28,30.28,0,0,0,295.24,446,33.24,33.24,0,0,0,282.6,435.12Zm6.51-25.77a13.87,13.87,0,0,1-8.19,3.44,10.74,10.74,0,0,1-8-3.52c-4-4.18-4.45-9.71-6.17-14.77l-1.25-.31c.35.92.64,1.85.91,2.8,1.49,5.31,2.64,11.22,7.92,14.78,4.53,3,10,2.15,14.24-.78a32.1,32.1,0,0,0,4.44-3.82l-.8-.61A34.28,34.28,0,0,1,289.11,409.35Zm27.5,25.37a17.07,17.07,0,0,1-2.25.78c-3.16.85-6.92.76-9.29-1.5a7.68,7.68,0,0,1-1.82-7.21,13.58,13.58,0,0,1,2.64-5.47c-.19-.25-.4-.49-.61-.73-2.5,3.1-4.14,6.44-3,10.63a7.41,7.41,0,0,0,4.26,4.9,12.68,12.68,0,0,0,8.51.17,17.54,17.54,0,0,0,2.17-.8Zm22.51,30.07c-4.05,2.64-8.67,4.72-13.86,4.51-2.58-.1-5.3-.86-6.88-2.75-2-2.45-1.52-5.79.11-8.29,2.25-3.47,6.4-5.58,10.53-7.29l-.56-.75a43.78,43.78,0,0,0-4.59,2.17c-4.42,2.46-8.48,6.42-7.84,11.31.59,4.53,5.41,6.63,10.2,6.56,5.06-.09,9.5-2.12,13.46-4.68C339.5,465.32,339.32,465.05,339.12,464.79Z" style="fill:#fff;opacity:0.5"></path><path d="M235.65,191.77C256,169.15,251.93,95.16,215.58,64.65c-50.07-42-143.77,18.78-117.48,87.44S219.94,209.22,235.65,191.77Z" style="fill:#263238"></path><path d="M121.94,74.54c11.94-15.85,29.71-27.92,49.76-30.45,20.36-2.52,41.23,5.78,55.57,20.2,10.75,10.94,17.54,25.08,20.89,39.87,3.31,14.61,3.39,29.77,1.37,44.55a167.1,167.1,0,0,1-6.65,28.75,231.4,231.4,0,0,0,3.8-29c2.83-37.67-8.6-80.49-46.9-95.43-28.29-11.71-57.63.52-77.84,21.54Z" style="fill:#263238"></path><g style="opacity:0.1"><path d="M114.46,82.77c-11.51,22.43-11.78,50.58-.07,72.88,11.73,22.53,36.5,35.16,61,38.08a147,147,0,0,0,50.63-3.06,122.71,122.71,0,0,1-51,6.83c-26.14-1.91-52.71-15.63-64.71-39.73-11.69-23.37-10.45-53.27,4.14-75Z"></path><path d="M190.34,68.11c9.42,2.56,17.1,9.61,23.31,16.91,11.56,14.18,18.31,31.72,22.13,49.44a157.74,157.74,0,0,1,3.06,32.29c-1.42-6.74-2.84-14.26-4.39-21-6.33-26.44-19-63.78-44.11-77.63Z"></path><path d="M121,108.37c1.89,5.23,3.28,10.63,5.51,15.71a78.48,78.48,0,0,0,7.92,14.27A131.86,131.86,0,0,0,199.67,186a88.19,88.19,0,0,0,16.23,3.59c-8.44.38-16.89-1.26-25-3.68-24-7.52-46.52-23.92-60-45.31A67.92,67.92,0,0,1,124,125c-1.67-5.42-2.29-11-3-16.6Z"></path></g><path d="M117.2,77.9c-7,5.82-11.06,14.54-14.55,22.77-10.73,26.19-11.79,60.27,11.47,80,21.8,20,52.55,27.32,81.57,24.4A109.53,109.53,0,0,0,209.28,203a86.21,86.21,0,0,1-13.36,3.65,108.26,108.26,0,0,1-41.72.08A93.23,93.23,0,0,1,110.27,185c-17-14.14-22.83-37.76-18.91-58.86a92.4,92.4,0,0,1,15.91-38.58c2.79-3.67,5.87-7.36,9.93-9.65Z" style="fill:#263238"></path><path d="M113.33,79.82c-17,22.63-30.63,53-19.66,81,7,17.59,21.9,32,39.12,39.7,17.75,7.84,37.91,8.77,57.07,6.28a161.68,161.68,0,0,0,28.83-6.43,111.22,111.22,0,0,1-13.89,5.4c-23.85,7.55-50.54,9.5-74.16-.22-18.94-7.93-34.78-23.47-42.18-42.77-10.93-29.59,4.15-61.69,24.87-82.94Z" style="fill:#263238"></path><path d="M132.72,77.25c-17.15,5.21-33,15-43.27,29.88a125,125,0,0,0-9.12,15.81,48.6,48.6,0,0,1,5.19-18.17c8.65-17.09,28-28.86,47.2-27.52Z" style="fill:#263238"></path><path d="M233.21,163.93c12.91-16.23,20.07-36.46,18.92-57.14A150.79,150.79,0,0,0,249.52,86a61.21,61.21,0,0,1,7.18,20.29c3.74,21.43-5,45.52-23.49,57.62Z" style="fill:#263238"></path><path d="M121.94,74.54C131.64,50,164,32.49,189.85,33.85c32.78,1.18,44.1,42.3,47.5,69.06a196.11,196.11,0,0,1,1.5,24.31c-3.91-28.15-12.93-85.07-47.78-88.47a72.19,72.19,0,0,0-33,5.82c-14.47,6.27-28.39,15.81-36.17,30Z" style="fill:#263238"></path><path d="M99.48,138.52c-3.74,19.9-4.84,45.17,10.74,60.31,10.36,9.77,25.3,11.7,39.09,11.77,21.65-.22,43.23-4.7,63.85-11.26-13.14,6.53-27.36,10.75-41.75,13.56-21,3.74-47.91,5.32-64.48-10.68-16.37-16.77-14.46-43.2-7.45-63.7Z" style="fill:#263238"></path><path d="M219.8,412c1.54,6.93,34.37,46.76,65.94,45.64,10.29-.38,10.32-51.25,10.32-51.25l1-4.14,13.66-58-67.82-44.61-9.81-5.91s-2.69,16.11-5.84,36.22c-.15.93-.3,1.86-.45,2.86s-.42,2.2-.56,3.26c-.51,3-1,6.06-1.46,9.13-.35,2.32-.69,4.59-1,7s-.61,4.86-1,7.32C220,383.82,219.19,409,219.8,412Z" style="fill:#d3766a"></path><path d="M227.24,329.9c16.14,46.47,52.9,65.76,69.81,72.31l13.66-58-67.82-44.61-9.81-5.91S230.39,309.79,227.24,329.9Z" style="fill:#263238"></path><path d="M378.92,249.66C395,353,335,374.33,312.68,377.79c-20.24,3.13-89.53,11.23-116.25-89.89S212.67,146.6,258.56,137,362.79,146.31,378.92,249.66Z" style="fill:#d3766a"></path><path d="M208.29,318.25c27.47-.75,21.29-63.95,21.29-63.95s61.73-10.39,70.4-82.79c0,0,46.23,50.86,74.68,44.75,0,0-24.46-88.34-82.84-83.08,0,0-70.44-15.75-107.42,45.12S181,319,208.29,318.25Z" style="fill:#263238"></path><path d="M239.78,281.06c-6.5-7.45-5.3-19.13.87-26.54,4.1-4.89,10.32-7.38,15.62-10.47a129.78,129.78,0,0,0,14.83-9.58c21.47-16.74,26.63-45.61,29.5-71.47,2.48,27.77-3.35,60.69-27.81,77.63a115.39,115.39,0,0,1-14,8.22c-5.12,2.68-11,4.49-15.12,8.43a20.28,20.28,0,0,0-3.9,23.78Z" style="fill:#263238"></path><path d="M299.36,167.2c9.64,15.8,24.54,34.85,43,40,10,3.2,21.46,1.95,30.75,7.59,7.52,4.84,9.9,14.91,8,23.17a28.22,28.22,0,0,1-2.7,7.5c.87-7.49.54-15.14-3.73-21.18s-11-6.57-18.47-7.5c-10.5-1-22-3.57-30.58-10.4a78,78,0,0,1-26.19-39.16Z" style="fill:#263238"></path><path d="M184.72,296.07a180.43,180.43,0,0,0,14,15.14c8.06,8.47,24.53,20.14,20.9,33.69-2.1,8.82-14.19,13.88-20.73,6.71,5.69,3.15,13.13.11,15.32-5.8A12.31,12.31,0,0,0,213,335.68l-1.23-1.95c-.69-1-2.16-2.91-3-3.84-8.85-10.12-19.62-20.56-24.06-33.82Z" style="fill:#263238"></path><path d="M188.11,280.1c6.25,14,14.7,26.65,23.24,39.36,6.72,10.69,16.58,23.59,13.2,37.15-3,13-20,19.47-30.16,10.54a15.5,15.5,0,0,1-2.52-3c7.23,7,19.63,5.09,25-2.72,8.49-12.57-4.1-27.84-10.29-38.94-8-13.13-15.66-27.1-18.45-42.4Z" style="fill:#263238"></path><g style="opacity:0.1"><path d="M293.28,151.73c1.52,34.74-21.43,67.36-51.47,83.25a121.23,121.23,0,0,1-31.73,12c16.74-7.15,32.65-15.74,46.31-27.68C276.16,202,289.84,178,293.28,151.73Z"></path><path d="M300.6,159c18.23,22.17,41.42,39.82,68.45,49.84C340.25,206,312.68,185.06,300.6,159Z"></path></g><path d="M201.53,157.06c-14.61,26.22-33.44,52-35.05,82.87-1.41,13.27,2.31,26.42,7.56,38.6a212.51,212.51,0,0,0,14.07,27.07A127.79,127.79,0,0,1,176,289c-7.18-11.85-13.23-24.84-14.52-38.82a93.13,93.13,0,0,1,7.07-41c8.18-19,20.42-35.83,33-52.06Z" style="fill:#263238"></path><path d="M291.82,133.18c21.47-3.46,47.79,10,62.32,25.37,10,11.6,15.64,35.24,18.28,50.27-3.64-9.46-7.17-18.89-11.14-28.06-3.54-7.77-6.87-15.71-13.33-21.43-15-13.43-35.68-25.11-56.13-26.15Z" style="fill:#263238"></path><path d="M300.11,167.76a120.4,120.4,0,0,1,4.71,21.84c1,8.46,1.4,17.09-.37,25.54-1.59,6.92-7,12.46-12.63,16.23A58.44,58.44,0,0,1,271,239.83a103.45,103.45,0,0,0,18.5-11.62c5.29-4.38,9.9-9.76,10.57-16.73,1.9-14.3.45-29.17.06-43.72Z" style="fill:#263238"></path><path d="M228.84,254.3c4.86,8.58,6.84,18.43,7.49,28.19.37,4.59-.81,9.06.78,13.61a51.93,51.93,0,0,0,6.22,12.54c-6.41-4.09-11.54-10.95-11.92-18.82,0-2.36.08-4.71-.06-7.09-.49-9.52-1.39-18.86-2.51-28.43Z" style="fill:#263238"></path><path d="M347.71,240.21a68.6,68.6,0,0,1-7.31.08c-2.81,0-5,.28-7.48-1.35a3.77,3.77,0,0,1-1-4.49c1.7-3.13,5.14-4,8.52-4.12a13.7,13.7,0,0,1,9.46,2.87C352.75,235.33,351,239.87,347.71,240.21Z" style="fill:#263238"></path><path d="M275.76,255.06a70.64,70.64,0,0,0,7-2c2.69-.79,4.92-1.15,6.79-3.39a3.76,3.76,0,0,0-.31-4.59c-2.52-2.53-6.06-2.38-9.34-1.56a13.7,13.7,0,0,0-8.26,5.42C269.55,251.8,272.52,255.66,275.76,255.06Z" style="fill:#263238"></path><path d="M292.41,268.34c-.12-.26-.48.45-.41.74,1.75,7,2.58,15.31-3.29,19-.18.11-.08.46.15.38C296.4,285.71,295.19,274.69,292.41,268.34Z" style="fill:#263238"></path><path d="M284.52,262.35c-11.52,1.59-7.48,24.52,3.19,23C298.21,283.93,294.17,261,284.52,262.35Z" style="fill:#263238"></path><path d="M280.23,264.35c-1.77,1.65-3.33,4.29-5.7,4.95-2.74.77-5.28-1.26-7.51-3.24-.23-.21-.39,0-.34.33.7,4.4,3.19,8.61,8,8.43,4.4-.15,6.8-4.59,7.12-9.2C281.87,264.77,281,263.69,280.23,264.35Z" style="fill:#263238"></path><path d="M334.7,259.37c0-.28.6.26.63.56.74,7.17,2.79,15.27,9.57,16.77.21,0,.24.41,0,.4C336.86,277.06,334.24,266.28,334.7,259.37Z" style="fill:#263238"></path><path d="M340.07,251.05c11.38-2.42,15.38,20.5,4.84,22.75C334.54,276,330.54,253.08,340.07,251.05Z" style="fill:#263238"></path><path d="M345.12,251.72c2,.9,4.2,2.79,6.39,2.56,2.53-.28,4-3.08,5.14-5.74.13-.27.34-.11.4.19.89,4.36.23,9.18-3.83,10.76-3.7,1.43-7.18-1.83-9-6C343.9,252.7,344.3,251.36,345.12,251.72Z" style="fill:#263238"></path><path d="M300.06,324.81c1.73,1.68,3.47,4,6.08,4.21s5.45-.94,7.75-1.84a.25.25,0,0,1,.31.36,9.7,9.7,0,0,1-9.14,3.95c-3.26-.56-4.89-3.37-5.69-6.35C299.26,324.72,299.81,324.56,300.06,324.81Z" style="fill:#263238"></path><path d="M328.57,297s2.14,10.65,2.45,15.73c0,.47-1.19.77-2.9,1-.08,0-.13.06-.2,0-8.87,1.94-18.07-.6-24-7.58-.37-.47.24-1,.72-.75,7,4.5,14.44,5.32,22.39,5,.27-1.42-4.27-18.13-3.47-18.24,2.76-.4,8.33,1.15,11.67,1.91-3.81-22.33-11.17-43.87-14.63-66.16a.7.7,0,0,1,1.31-.41c9.31,22,14.25,47.63,18.78,70.59C341.32,300.88,330.65,297.71,328.57,297Z" style="fill:#263238"></path><path d="M230.46,291.4S204.7,261,190.7,270.49s7.5,55,25.41,59.84,22.72-11.67,22.72-11.67Z" style="fill:#d3766a"></path><path d="M197.19,283.39a.24.24,0,0,0-.05.47c12.6,3.78,20,14.45,25.61,25.7-4-4.15-9.18-6.16-14.8-1.3-.29.26.06.72.39.62,4.88-1.53,8.55-1,12.28,2.67,2.64,2.6,4.6,6,6.61,9.11.67,1,2.57.27,2-.94l-.12-.27C228,303.94,214,283.4,197.19,283.39Z" style="fill:#263238"></path><path d="M194.72,314.81c.26,4.87-14.26-11.39-15-13.86s-6.93-7.66-9.52-12.45S176.56,223.6,197,196c29.75-40.16,81.12-56.62,81.12-56.62s8-2.53,33.09,4.82,55.55,30.24,55.67,31.59a23.26,23.26,0,0,0,1.47,6.76c1.27,3.67,5.3,7.44,3.31,11s3.36,12.56,3.32,16.34-1,4.75-.32,7.32-7.12-45.51-87.33-67.71C287.29,149.52,189.15,210.05,194.72,314.81Z" style="fill:#00FF00"></path><path d="M374.48,216.51a2.87,2.87,0,0,0,.14.71C374.69,217.43,374.64,217.18,374.48,216.51Z" style="fill:#FF7D"></path><path d="M374.47,216.51a4,4,0,0,0,.15.72C374.68,217.44,374.64,217.18,374.47,216.51Z" style="fill:#FF7D"></path><path d="M179.32,300.2c-.49-4.8.09-9.62.55-14.4s1.11-9.58,1.78-14.35c1.37-9.53,2.79-19.08,4.64-28.52.45-2.35.88-4.74,1.48-7a31.54,31.54,0,0,1,3-6.33c2.4-4.15,5.13-8.12,7.78-12.14s5.43-8,8.22-11.9l8.34-11.83q-9.19,11.19-17.63,23c-2.83,3.92-5.53,7.93-8,12.1a32.71,32.71,0,0,0-3.24,6.67c-.66,2.39-1.11,4.75-1.59,7.13-1.72,9.53-3.17,19.08-4.26,28.68-.52,4.8-1,9.61-1.32,14.44-.14,2.41-.24,4.83-.25,7.25A34.24,34.24,0,0,0,179.32,300.2Z" style="fill:#050400;opacity:0.1"></path><path d="M371.05,195.76a87.31,87.31,0,0,0-7-9.58,110.3,110.3,0,0,0-7.94-8.82,50,50,0,0,0-4.48-4c-1.6-1.15-3.17-2.34-4.8-3.46L342,166.55c-1.65-1.08-3.27-2.21-4.95-3.24,1.45,1.34,3,2.6,4.45,3.9l4.55,3.75c1.51,1.27,3.07,2.46,4.6,3.68a56.72,56.72,0,0,1,4.3,3.92c2.79,2.73,5.45,5.62,8.14,8.47,1.35,1.43,2.68,2.87,4,4.34S369.74,194.28,371.05,195.76Z" style="fill:#050400;opacity:0.1"></path><path d="M291.26,139.42s23.29-25.15,53-22.71c0,0-6.83,28.58-18.92,36.06-6,3.72-29.16,1.21-31.08-3.1A53.23,53.23,0,0,1,291.26,139.42Z" style="fill:#00ff00"></path><path d="M291.26,139.44a54.65,54.65,0,0,0,3,10.2,1.28,1.28,0,0,0,.37.53,2.15,2.15,0,0,0,.57.55c.17.09.31.22.54.33,2.4,1.53,7.24,2.63,12.45,3.14a70.76,70.76,0,0,0-.66-13.11c-.6-3.37-3.81-6.82-7.12-9.63A70.94,70.94,0,0,0,291.26,139.44Z" style="fill:#050400;opacity:0.1"></path><path d="M283.39,142s-39.24-14.22-60.43-9.28c0,0,6.45,23.17,25.68,32.38,8.61,4.13,38.44-7.12,37.94-12.16A41.58,41.58,0,0,0,283.39,142Z" style="fill:#00ff00"></path><path d="M274.39,139c-1.48,3.61-2.94,8.91-1.92,13.53a20.57,20.57,0,0,0,4,7.69c5.93-2.56,10.26-5.41,10.1-7.37A42.17,42.17,0,0,0,283.39,142S279.89,140.67,274.39,139Z" style="fill:#050400;opacity:0.1"></path><path d="M277.34,150.3a13.56,13.56,0,1,0,9.22-16.81A13.57,13.57,0,0,0,277.34,150.3Z" style="fill:#00ff00"></path><path d="M238.7,158.27c10.34,7.79,13.66,8.54,26.3,5.77,1.34-.27,2.67-.61,4-.94-5.11,2.05-10.55,3.54-16.12,3.36-5.64-.42-10.26-4.47-14.18-8.19Z" style="fill:#263238"></path><path d="M301.83,153.21c7.59,1.16,15.91,2.7,23.08-.79a33,33,0,0,0,3-1.61c-7,6.51-17.68,5.27-26.06,2.4Z" style="fill:#263238"></path></g><g id="freepik--Sparkles--inject-79"><polygon points="119.29 72.01 125.1 70.94 126.4 64.81 127.69 70.94 133.5 72.02 127.72 73.43 126.4 79.21 125.07 73.43 119.29 72.01" style="fill:#FF7D7F"></polygon><polygon points="112.41 306.33 118.22 305.25 119.52 299.13 120.81 305.25 126.62 306.33 120.84 307.74 119.52 313.53 118.19 307.74 112.41 306.33" style="fill:#FF7D7F"></polygon><polygon points="401.21 269.11 407.02 268.03 408.31 261.91 409.61 268.03 415.42 269.11 409.64 270.52 408.31 276.31 406.99 270.52 401.21 269.11" style="fill:#FF7D7F"></polygon><polygon points="324.02 84.83 329.83 83.75 331.13 77.63 332.43 83.75 338.23 84.83 332.45 86.24 331.13 92.03 329.81 86.24 324.02 84.83" style="fill:#FF7D7F"></polygon><polygon points="63.5 335.36 66.74 334.76 67.47 331.33 68.19 334.76 71.44 335.36 68.21 336.15 67.47 339.38 66.73 336.15 63.5 335.36" style="fill:#FF7D7F"></polygon><polygon points="91.94 165.05 95.18 164.45 95.91 161.03 96.63 164.45 99.88 165.05 96.65 165.84 95.91 169.07 95.17 165.84 91.94 165.05" style="fill:#FF7D7F"></polygon><polygon points="203.56 81.47 206.81 80.87 207.53 77.45 208.26 80.87 211.5 81.47 208.27 82.26 207.53 85.49 206.79 82.26 203.56 81.47" style="fill:#FF7D7F"></polygon><polygon points="376.99 390.62 380.24 390.02 380.96 386.6 381.69 390.02 384.94 390.63 381.7 391.42 380.96 394.65 380.23 391.42 376.99 390.62" style="fill:#FF7D7F"></polygon><polygon points="327.15 172.76 330.4 172.16 331.13 168.74 331.85 172.16 335.1 172.76 331.87 173.55 331.13 176.79 330.39 173.55 327.15 172.76" style="fill:#FF7D7F"></polygon><polygon points="428.56 212.52 431.81 211.92 432.53 208.5 433.26 211.92 436.5 212.53 433.27 213.32 432.53 216.55 431.79 213.32 428.56 212.52" style="fill:#FF7D7F"></polygon><polygon points="382.29 132.58 385.54 131.98 386.26 128.56 386.99 131.98 390.23 132.58 387 133.37 386.26 136.6 385.52 133.37 382.29 132.58" style="fill:#FF7D7F"></polygon><polygon points="193.59 432.56 196.84 431.96 197.56 428.54 198.29 431.96 201.53 432.56 198.3 433.35 197.56 436.58 196.82 433.35 193.59 432.56" style="fill:#FF7D7F"></polygon><path d="M425.45,279.45a.94.94,0,0,0,0-1.88A.94.94,0,0,0,425.45,279.45Z" style="fill:#FF7D7F"></path><path d="M170.64,318.33a1,1,0,0,0,0-1.89A.95.95,0,0,0,170.64,318.33Z" style="fill:#FF7D7F"></path><path d="M68.38,174.84a1,1,0,0,0,0-1.89A.95.95,0,0,0,68.38,174.84Z" style="fill:#FF7D7F"></path><path d="M387.71,178.75a.94.94,0,0,0,0-1.88A.94.94,0,0,0,387.71,178.75Z" style="fill:#FF7D7F"></path><path d="M348.23,180.87a.67.67,0,0,0,0-1.34A.67.67,0,0,0,348.23,180.87Z" style="fill:#FF7D7F"></path><path d="M265.24,51.2a.67.67,0,0,0,0-1.33A.67.67,0,0,0,265.24,51.2Z" style="fill:#FF7D7F"></path><path d="M164.41,127.89a.67.67,0,0,0,0-1.33A.67.67,0,0,0,164.41,127.89Z" style="fill:#FF7D7F"></path><path d="M322.39,59.69a1.81,1.81,0,0,0,0-3.61A1.81,1.81,0,0,0,322.39,59.69Z" style="fill:#FF7D7F"></path><path d="M133.06,227.21a1.81,1.81,0,0,0,0-3.61A1.81,1.81,0,0,0,133.06,227.21Z" style="fill:#FF7D7F"></path></g></svg>
