<svg width="28" height="28" viewBox="0 0 28 28" fill="none" xmlns="http://www.w3.org/2000/svg">
<g clip-path="url(#clip0_11_3194)">
<path d="M19.5685 0.0140123C19.509 -0.0524877 17.3652 0.0402623 15.4997 2.06501C13.6342 4.08801 13.9212 6.40851 13.9632 6.46801C14.0052 6.52751 16.6232 6.62026 18.2945 4.26651C19.9657 1.91276 19.628 0.0822623 19.5685 0.0140123ZM25.368 20.5468C25.284 20.3788 21.2992 18.3873 21.6702 14.5583C22.0412 10.7275 24.6015 9.67751 24.6417 9.56376C24.682 9.45001 23.597 8.18126 22.4472 7.53901C21.6031 7.0862 20.6688 6.82678 19.712 6.77951C19.523 6.77426 18.8667 6.61326 17.5175 6.98251C16.6285 7.22576 14.6247 8.01326 14.0735 8.04476C13.5205 8.07626 11.8755 7.13126 10.1062 6.88101C8.97399 6.66226 7.77349 7.11026 6.91424 7.45501C6.05674 7.79801 4.42574 8.77451 3.28474 11.3698C2.14374 13.9633 2.74049 18.0723 3.16749 19.3498C3.59449 20.6255 4.26124 22.7168 5.39524 24.2428C6.40324 25.9648 7.74024 27.16 8.29849 27.566C8.85674 27.972 10.4317 28.2415 11.5237 27.6833C12.4022 27.1443 13.9877 26.8345 14.6142 26.8573C15.239 26.88 16.471 27.1268 17.7327 27.8005C18.732 28.1453 19.677 28.0018 20.6237 27.6168C21.5705 27.23 22.9407 25.7635 24.5402 22.7903C25.1475 21.4078 25.424 20.6605 25.368 20.5468Z" fill="#141115"/>
</g>
<defs>
<clipPath id="clip0_11_3194">
<rect width="28" height="28" fill="white"/>
</clipPath>
</defs>
</svg>
