<svg width="26" height="25" viewBox="0 0 26 25" fill="none" xmlns="http://www.w3.org/2000/svg">
<path d="M25.3751 22.442L25.0917 22.192C24.2879 21.4758 23.5844 20.6545 23.0001 19.7503C22.3619 18.5024 21.9795 17.1397 21.8751 15.742V11.6253C21.8806 9.43 21.0843 7.30822 19.6357 5.65864C18.1871 4.00905 16.186 2.94521 14.0084 2.66699V1.59199C14.0084 1.29694 13.8912 1.01397 13.6826 0.805336C13.4739 0.596702 13.191 0.479492 12.8959 0.479492C12.6009 0.479492 12.3179 0.596702 12.1093 0.805336C11.9006 1.01397 11.7834 1.29694 11.7834 1.59199V2.68366C9.6253 2.98193 7.64839 4.05221 6.21885 5.69625C4.78932 7.34029 4.00402 9.4467 4.00841 11.6253V15.742C3.90404 17.1397 3.52156 18.5024 2.88341 19.7503C2.30915 20.6523 1.61691 21.4734 0.825081 22.192L0.541748 22.442V24.792H25.3751V22.442Z" fill="#359C71"/>
</svg>
