<svg width="22" height="22" viewBox="0 0 22 22" fill="none" xmlns="http://www.w3.org/2000/svg">
<path d="M16.526 5.11594L13.347 0.658936L1.658 9.99693L1.01 9.98993V9.99994H0.5V21.9999H21.5V9.99994H20.538L18.624 4.40094L16.526 5.11594ZM18.425 9.99994H8.397L15.866 7.45394L17.388 6.96694L18.425 9.99994ZM14.55 5.78994L6.84 8.41794L12.946 3.53994L14.55 5.78994ZM2.5 18.1689V13.8289C2.9219 13.6794 3.30511 13.4377 3.6217 13.1212C3.93828 12.8048 4.18027 12.4217 4.33 11.9999H17.67C17.8197 12.4219 18.0616 12.8051 18.3782 13.1217C18.6948 13.4383 19.078 13.6803 19.5 13.8299V18.1699C19.078 18.3196 18.6948 18.5616 18.3782 18.8781C18.0616 19.1947 17.8197 19.578 17.67 19.9999H4.332C4.18218 19.5776 3.93996 19.1941 3.62302 18.8773C3.30607 18.5605 2.9224 18.3185 2.5 18.1689Z" fill="white"/>
</svg>
