<svg width="18" height="21" viewBox="0 0 18 21" fill="none" xmlns="http://www.w3.org/2000/svg">
<path d="M1.615 18C1.16833 18 0.787333 17.8427 0.472 17.528C0.157333 17.2133 0 16.8323 0 16.385V3.615C0 3.16833 0.157333 2.78734 0.472 2.472C0.786667 2.15734 1.16767 2 1.615 2H6.315C6.22433 1.49 6.34667 1.029 6.682 0.617002C7.01733 0.205002 7.45667 -0.000665051 8 1.61551e-06C8.55667 1.61551e-06 9.00267 0.205668 9.338 0.617002C9.67333 1.02834 9.789 1.48934 9.685 2H14.385C14.8317 2 15.2127 2.15734 15.528 2.472C15.8427 2.78667 16 3.16767 16 3.615V9.565C15.8247 9.505 15.6567 9.456 15.496 9.418C15.3353 9.38 15.17 9.34267 15 9.306V3.616C15 3.462 14.936 3.32067 14.808 3.192C14.68 3.06333 14.539 2.99934 14.385 3H1.615C1.46167 3 1.32067 3.064 1.192 3.192C1.06333 3.32 0.999333 3.461 1 3.615V16.385C1 16.5383 1.064 16.6793 1.192 16.808C1.32 16.9367 1.461 17.0007 1.615 17H7.281C7.305 17.1867 7.336 17.3603 7.374 17.521C7.412 17.6817 7.461 17.8413 7.521 18H1.615ZM1 16V17V3V9.306V9.231V16ZM3.5 14.27H7.46C7.49667 14.0987 7.54667 13.933 7.61 13.773C7.67333 13.613 7.74 13.445 7.81 13.269H3.5V14.27ZM3.5 10.5H10.08C10.4087 10.2693 10.732 10.0737 11.05 9.913C11.368 9.75234 11.7103 9.627 12.077 9.537V9.5H3.5V10.5ZM3.5 6.73H12.5V5.73H3.5V6.73ZM8 2.443C8.21667 2.443 8.396 2.37233 8.538 2.231C8.68 2.08967 8.75067 1.91034 8.75 1.693C8.74933 1.47567 8.67833 1.29667 8.537 1.156C8.39567 1.01533 8.21667 0.944001 8 0.942002C7.78333 0.940002 7.60433 1.011 7.463 1.155C7.32167 1.299 7.25067 1.478 7.25 1.692C7.24933 1.906 7.32033 2.08534 7.463 2.23C7.60567 2.37467 7.78467 2.44633 8 2.443ZM14 20.115C12.886 20.115 11.9407 19.727 11.164 18.951C10.3873 18.175 9.99933 17.2297 10 16.115C10.0007 15.0003 10.3887 14.0553 11.164 13.28C11.9393 12.5047 12.8847 12.1163 14 12.115C15.1153 12.1137 16.0607 12.502 16.836 13.28C17.6113 14.058 17.9993 15.003 18 16.115C18.0007 17.227 17.6127 18.1723 16.836 18.951C16.0593 19.7297 15.114 20.1177 14 20.115ZM13.615 19H14.385V16.5H16.885V15.73H14.385V13.23H13.615V15.73H11.115V16.5H13.615V19Z" fill="white"/>
</svg>
