<svg width="13" height="12" viewBox="0 0 13 12" fill="none" xmlns="http://www.w3.org/2000/svg">
<path d="M0.0930269 10.8921L5.84003 0.39109C5.90475 0.272576 6.00018 0.173675 6.11632 0.104773C6.23245 0.0358717 6.36499 -0.000488281 6.50003 -0.000488281C6.63506 -0.000488281 6.7676 0.0358717 6.88374 0.104773C6.99987 0.173675 7.09531 0.272576 7.16003 0.39109L12.907 10.8921C12.9696 11.0065 13.0013 11.1352 12.999 11.2655C12.9966 11.3959 12.9604 11.5233 12.8937 11.6354C12.8271 11.7475 12.7324 11.8402 12.619 11.9045C12.5056 11.9688 12.3774 12.0024 12.247 12.0021H0.753027C0.622659 12.0024 0.49445 11.9688 0.381044 11.9045C0.267639 11.8402 0.172953 11.7475 0.106325 11.6354C0.0396969 11.5233 0.00342851 11.3959 0.00109658 11.2655C-0.00123535 11.1352 0.0304498 11.0065 0.0930269 10.8921ZM7.30003 7.00009L7.70303 4.58209C7.71493 4.51049 7.7111 4.43716 7.69181 4.36719C7.67252 4.29722 7.63823 4.23229 7.59132 4.17691C7.5444 4.12153 7.486 4.07703 7.42015 4.04649C7.35431 4.01596 7.28261 4.00012 7.21003 4.00009H5.79003C5.71745 4.00012 5.64574 4.01596 5.5799 4.04649C5.51406 4.07703 5.45565 4.12153 5.40874 4.17691C5.36183 4.23229 5.32753 4.29722 5.30824 4.36719C5.28895 4.43716 5.28512 4.51049 5.29703 4.58209L5.70003 7.00009H7.30003ZM7.60003 8.90009C7.60003 8.60835 7.48413 8.32856 7.27784 8.12227C7.07155 7.91598 6.79176 7.80009 6.50003 7.80009C6.20829 7.80009 5.9285 7.91598 5.72221 8.12227C5.51592 8.32856 5.40003 8.60835 5.40003 8.90009C5.40003 9.19183 5.51592 9.47162 5.72221 9.67791C5.9285 9.8842 6.20829 10.0001 6.50003 10.0001C6.79176 10.0001 7.07155 9.8842 7.27784 9.67791C7.48413 9.47162 7.60003 9.19183 7.60003 8.90009Z" fill="#359C71"/>
</svg>
