<svg width="40" height="40" viewBox="0 0 40 40" fill="none" xmlns="http://www.w3.org/2000/svg">
<path d="M36.4531 1.50977H3.55002C2.42302 1.50977 1.5094 2.42338 1.5094 3.55039V36.4535C1.5094 37.5805 2.42302 38.4941 3.55002 38.4941H36.4531C37.5802 38.4941 38.4938 37.5805 38.4938 36.4535V3.55039C38.4938 2.42338 37.5802 1.50977 36.4531 1.50977Z" fill="#3D5A98"/>
<path d="M27.025 38.4902V24.1683H31.8312L32.55 18.5871H27.025V15.0246C27.025 13.409 27.475 12.3058 29.7906 12.3058H32.7469V7.30583C31.3153 7.15664 29.8767 7.0857 28.4375 7.09333C24.1812 7.09333 21.25 9.68708 21.25 14.4715V18.5871H16.4437V24.1683H21.25V38.4902H27.025Z" fill="white"/>
</svg>
