<svg width="31" height="24" viewBox="0 0 31 24" fill="none" xmlns="http://www.w3.org/2000/svg">
<g clip-path="url(#clip0_11_3186)">
<path d="M7.3182 23.1968V11.6058L3.72348 8.31715L0.5 6.49219V21.1513C0.5 22.2831 1.41699 23.1968 2.54551 23.1968H7.3182Z" fill="#4285F4"/>
<path d="M23.6818 23.1977H28.4545C29.5864 23.1977 30.5 22.2805 30.5 21.1521V6.49316L26.8489 8.58344L23.6818 11.6066V23.1977Z" fill="#34A853"/>
<path d="M7.31818 11.6058L6.82904 7.07684L7.31818 2.74219L15.5 8.87859L23.6818 2.74219L24.2289 6.84281L23.6818 11.6058L15.5 17.7422L7.31818 11.6058Z" fill="#EA4335"/>
<path d="M23.6818 2.74262V11.6062L30.5 6.49262V3.76532C30.5 1.23582 27.6125 -0.206169 25.591 1.31082L23.6818 2.74262Z" fill="#FBBC04"/>
<path d="M0.5 6.49267L3.63582 8.84463L7.3182 11.6063V2.74267L5.40898 1.31088C3.38398 -0.206232 0.5 1.23588 0.5 3.76525V6.49256V6.49267Z" fill="#C5221F"/>
</g>
<defs>
<clipPath id="clip0_11_3186">
<rect width="30" height="22.6172" fill="white" transform="translate(0.5 0.691406)"/>
</clipPath>
</defs>
</svg>
