<svg width="40" height="40" viewBox="0 0 40 40" fill="none" xmlns="http://www.w3.org/2000/svg">
<path d="M20.0007 31.6663C26.444 31.6663 31.6673 26.443 31.6673 19.9997C31.6673 13.5564 26.444 8.33301 20.0007 8.33301C13.5573 8.33301 8.33398 13.5564 8.33398 19.9997C8.33398 26.443 13.5573 31.6663 20.0007 31.6663Z" stroke="black" stroke-width="2"/>
<path d="M9.94156 5.22656C8.8109 5.52938 7.7799 6.12455 6.95222 6.95222C6.12455 7.7799 5.52938 8.8109 5.22656 9.94156M30.0582 5.22656C31.1889 5.52938 32.2199 6.12455 33.0476 6.95222C33.8752 7.7799 34.4704 8.8109 34.7732 9.94156M19.9999 13.3332V19.5832C19.9999 19.8132 20.1866 19.9999 20.4166 19.9999H24.9999" stroke="black" stroke-width="2" stroke-linecap="round"/>
</svg>
