<svg width="40" height="40" viewBox="0 0 40 40" fill="none" xmlns="http://www.w3.org/2000/svg">
<path d="M3.33398 14.9997C3.33398 11.8563 3.33398 10.2863 4.31065 9.30967C5.28732 8.33301 6.85732 8.33301 10.0007 8.33301H30.0007C33.144 8.33301 34.714 8.33301 35.6907 9.30967C36.6673 10.2863 36.6673 11.8563 36.6673 14.9997C36.6673 15.7847 36.6673 16.178 36.424 16.423C36.179 16.6663 35.784 16.6663 35.0007 16.6663H5.00065C4.21565 16.6663 3.82232 16.6663 3.57732 16.423C3.33398 16.178 3.33398 15.783 3.33398 14.9997ZM3.33398 29.9997C3.33398 33.143 3.33398 34.713 4.31065 35.6897C5.28732 36.6663 6.85732 36.6663 10.0007 36.6663H30.0007C33.144 36.6663 34.714 36.6663 35.6907 35.6897C36.6673 34.713 36.6673 33.143 36.6673 29.9997V21.6663C36.6673 20.8813 36.6673 20.488 36.424 20.243C36.179 19.9997 35.784 19.9997 35.0007 19.9997H5.00065C4.21565 19.9997 3.82232 19.9997 3.57732 20.243C3.33398 20.488 3.33398 20.883 3.33398 21.6663V29.9997Z" fill="black"/>
<path d="M11.668 5V10M28.3346 5V10" stroke="black" stroke-width="2" stroke-linecap="round"/>
</svg>
