<svg width="24" height="24" viewBox="0 0 24 24" fill="none" xmlns="http://www.w3.org/2000/svg">
<path d="M9.79663 9.78836C10.9305 8.65453 12.4569 7.9999 14.0599 7.95988C15.663 7.91986 17.2201 8.49752 18.4091 9.57336L18.6354 9.78836L22.1704 13.3246C23.3217 14.4779 23.977 16.0353 23.9966 17.6648C24.0162 19.2943 23.3986 20.8671 22.2754 22.0478C21.1523 23.2285 19.6123 23.9239 17.9839 23.9856C16.3554 24.0474 14.7673 23.4706 13.5579 22.3784L13.3329 22.1634L10.6804 19.5109C10.4562 19.2859 10.326 18.9841 10.3163 18.6666C10.3067 18.3492 10.4182 18.04 10.6282 17.8018C10.8382 17.5636 11.1311 17.4142 11.4472 17.3841C11.7634 17.354 12.0791 17.4453 12.3304 17.6396L12.4479 17.7434L15.1004 20.3959C15.788 21.0875 16.718 21.484 17.693 21.5013C18.6681 21.5187 19.6116 21.1555 20.3234 20.4888C21.0351 19.8221 21.4591 18.9043 21.5055 17.9302C21.5518 16.956 21.2169 16.0021 20.5716 15.2709L20.4029 15.0921L16.8679 11.5571C16.5197 11.2088 16.1062 10.9325 15.6512 10.744C15.1962 10.5556 14.7085 10.4585 14.216 10.4585C13.7235 10.4585 13.2358 10.5556 12.7808 10.744C12.3258 10.9325 11.9124 11.2088 11.5641 11.5571C11.3296 11.7915 11.0115 11.9231 10.6799 11.923C10.3484 11.9229 10.0304 11.791 9.79601 11.5565C9.56162 11.3219 9.43001 11.0039 9.43013 10.6723C9.43025 10.3407 9.56208 10.0227 9.79663 9.78836ZM1.84163 1.83336C2.97555 0.699526 4.50188 0.0448961 6.10492 0.00487828C7.70796 -0.0351396 9.26506 0.542516 10.4541 1.61836L10.6804 1.83336L13.3316 4.48711C13.5558 4.71206 13.686 5.0139 13.6957 5.33134C13.7054 5.64878 13.5939 5.958 13.3838 6.19621C13.1738 6.43441 12.8809 6.58374 12.5648 6.61386C12.2486 6.64398 11.9329 6.55262 11.6816 6.35836L11.5641 6.25461L8.91288 3.60336C8.2241 2.91906 7.29675 2.52858 6.32593 2.51408C5.35511 2.49957 4.41651 2.86217 3.70759 3.52559C2.99867 4.18901 2.57469 5.10154 2.52485 6.07118C2.47502 7.04083 2.80321 7.99201 3.44038 8.72461L3.60913 8.90461L7.14538 12.4409C7.84861 13.1439 8.80227 13.5388 9.79663 13.5388C10.791 13.5388 11.7447 13.1439 12.4479 12.4409C12.5639 12.3247 12.7017 12.2326 12.8534 12.1697C13.0051 12.1068 13.1676 12.0744 13.3318 12.0744C13.496 12.0743 13.6586 12.1066 13.8103 12.1694C13.962 12.2321 14.0999 12.3242 14.216 12.4402C14.3321 12.5563 14.4243 12.6941 14.4872 12.8457C14.5501 12.9974 14.5825 13.16 14.5825 13.3242C14.5826 13.4884 14.5503 13.6509 14.4875 13.8027C14.4247 13.9544 14.3327 14.0922 14.2166 14.2084C13.0827 15.3422 11.5564 15.9968 9.95335 16.0368C8.35031 16.0769 6.79321 15.4992 5.60413 14.4234L5.37663 14.2084L1.84163 10.6721C0.66994 9.50006 0.0117188 7.91064 0.0117188 6.25336C0.0117187 4.59608 0.66994 3.00541 1.84163 1.83336Z" fill="black" fill-opacity="0.5"/>
</svg>
