<svg width="20" height="20" viewBox="0 0 20 20" fill="none" xmlns="http://www.w3.org/2000/svg">
<g clip-path="url(#clip0_913_29892)">
<path d="M10 20C10 20 3 10.87 3 7C3 6.08075 3.18106 5.1705 3.53284 4.32122C3.88463 3.47194 4.40024 2.70026 5.05025 2.05025C5.70026 1.40024 6.47194 0.884626 7.32122 0.532843C8.1705 0.18106 9.08075 0 10 0C10.9193 0 11.8295 0.18106 12.6788 0.532843C13.5281 0.884626 14.2997 1.40024 14.9497 2.05025C15.5998 2.70026 16.1154 3.47194 16.4672 4.32122C16.8189 5.1705 17 6.08075 17 7C17 10.87 10 20 10 20ZM10 9C10.5304 9 11.0391 8.78929 11.4142 8.41421C11.7893 8.03914 12 7.53043 12 7C12 6.46957 11.7893 5.96086 11.4142 5.58579C11.0391 5.21071 10.5304 5 10 5C9.46957 5 8.96086 5.21071 8.58579 5.58579C8.21071 5.96086 8 6.46957 8 7C8 7.53043 8.21071 8.03914 8.58579 8.41421C8.96086 8.78929 9.46957 9 10 9Z" fill="#359C71"/>
</g>
<defs>
<clipPath id="clip0_913_29892">
<rect width="20" height="20" fill="white"/>
</clipPath>
</defs>
</svg>
