<svg width="12" height="18" viewBox="0 0 12 18" fill="none" xmlns="http://www.w3.org/2000/svg">
<path d="M11.8333 6.50008C11.8333 5.73404 11.6824 4.97549 11.3893 4.26776C11.0961 3.56003 10.6664 2.91697 10.1247 2.37529C9.58307 1.83362 8.94001 1.40394 8.23228 1.11078C7.52455 0.817632 6.766 0.666748 5.99996 0.666748C5.23392 0.666748 4.47537 0.817632 3.76764 1.11078C3.05991 1.40394 2.41684 1.83362 1.87517 2.37529C1.33349 2.91697 0.903814 3.56003 0.610662 4.26776C0.317509 4.97549 0.166626 5.73404 0.166626 6.50008C0.166626 7.65591 0.507459 8.73092 1.08746 9.63758H1.08079L5.99996 17.3334L10.9191 9.63758H10.9133C11.514 8.7014 11.8333 7.61243 11.8333 6.50008ZM5.99996 9.00008C5.33692 9.00008 4.70103 8.73669 4.23219 8.26785C3.76335 7.79901 3.49996 7.16312 3.49996 6.50008C3.49996 5.83704 3.76335 5.20116 4.23219 4.73231C4.70103 4.26347 5.33692 4.00008 5.99996 4.00008C6.663 4.00008 7.29889 4.26347 7.76773 4.73231C8.23657 5.20116 8.49996 5.83704 8.49996 6.50008C8.49996 7.16312 8.23657 7.79901 7.76773 8.26785C7.29889 8.73669 6.663 9.00008 5.99996 9.00008Z" fill="black"/>
</svg>
