<svg width="18" height="24" viewBox="0 0 18 24" fill="none" xmlns="http://www.w3.org/2000/svg">
<path d="M9 0.850586C5.19844 0.850586 2.12813 3.92137 2.12813 7.71543V11.1045H4.45312V7.86543C4.45312 5.34824 6.4875 3.3073 9 3.3073C11.5078 3.3073 13.5469 5.40918 13.5469 7.86543V11.1045H15.8719V7.71543C15.8719 4.01512 12.7922 0.850586 9 0.850586ZM1.07344 11.9811C0.389063 13.0498 0 14.2826 0 15.5811C0 19.7201 3.98438 23.1514 9 23.1514C14.0156 23.1514 18 19.7201 18 15.5811C18 14.2826 17.6109 13.0498 16.9266 11.9811H1.07344Z" fill="black"/>
</svg>
