<svg width="16" height="13" viewBox="0 0 16 13" fill="none" xmlns="http://www.w3.org/2000/svg">
<path d="M2 12.5C1.5875 12.5 1.2345 12.3532 0.941 12.0597C0.6475 11.7662 0.5005 11.413 0.5 11V2C0.5 1.5875 0.647 1.2345 0.941 0.941C1.235 0.6475 1.588 0.5005 2 0.5H14C14.4125 0.5 14.7657 0.647 15.0597 0.941C15.3537 1.235 15.5005 1.588 15.5 2V11C15.5 11.4125 15.3532 11.7657 15.0597 12.0597C14.7662 12.3537 14.413 12.5005 14 12.5H2ZM8 7.25L2 3.5V11H14V3.5L8 7.25ZM8 5.75L14 2H2L8 5.75ZM2 3.5V2V11V3.5Z" fill="white"/>
</svg>
