<svg width="22" height="22" viewBox="0 0 22 22" fill="none" xmlns="http://www.w3.org/2000/svg">
<g clip-path="url(#clip0_1202_9237)">
<path d="M8.24944 12.9637H1.57087C1.36249 12.9637 1.16264 13.0465 1.01529 13.1939C0.867937 13.3412 0.785156 13.5411 0.785156 13.7494V20.428C0.785156 20.6364 0.867937 20.8362 1.01529 20.9836C1.16264 21.1309 1.36249 21.2137 1.57087 21.2137H8.24944C8.45783 21.2137 8.65768 21.1309 8.80503 20.9836C8.95238 20.8362 9.03516 20.6364 9.03516 20.428V13.7494C9.03516 13.5411 8.95238 13.3412 8.80503 13.1939C8.65768 13.0465 8.45783 12.9637 8.24944 12.9637ZM20.428 12.9637H13.7494C13.5411 12.9637 13.3412 13.0465 13.1939 13.1939C13.0465 13.3412 12.9637 13.5411 12.9637 13.7494V20.428C12.9637 20.6364 13.0465 20.8362 13.1939 20.9836C13.3412 21.1309 13.5411 21.2137 13.7494 21.2137H20.428C20.6364 21.2137 20.8362 21.1309 20.9836 20.9836C21.1309 20.8362 21.2137 20.6364 21.2137 20.428V13.7494C21.2137 13.5411 21.1309 13.3412 20.9836 13.1939C20.8362 13.0465 20.6364 12.9637 20.428 12.9637ZM14.3466 0.785156H7.66801C7.45963 0.785156 7.25978 0.867937 7.11243 1.01529C6.96508 1.16264 6.8823 1.36249 6.8823 1.57087V8.24944C6.8823 8.45783 6.96508 8.65768 7.11243 8.80503C7.25978 8.95238 7.45963 9.03516 7.66801 9.03516H14.3466C14.555 9.03516 14.7548 8.95238 14.9022 8.80503C15.0495 8.65768 15.1323 8.45783 15.1323 8.24944V1.57087C15.1323 1.36249 15.0495 1.16264 14.9022 1.01529C14.7548 0.867937 14.555 0.785156 14.3466 0.785156Z" stroke="black" stroke-linecap="round" stroke-linejoin="round"/>
</g>
<defs>
<clipPath id="clip0_1202_9237">
<rect width="22" height="22" fill="white"/>
</clipPath>
</defs>
</svg>
