<svg width="25" height="24" viewBox="0 0 25 24" fill="none" xmlns="http://www.w3.org/2000/svg">
<path d="M12.78 10.8732C12.0302 10.8653 11.2995 10.6358 10.6799 10.2135C10.0602 9.79114 9.57942 9.19494 9.29793 8.49992C9.01644 7.80491 8.94687 7.04214 9.09798 6.30767C9.24909 5.5732 9.61412 4.89985 10.1471 4.3724C10.6801 3.84496 11.3573 3.48699 12.0933 3.34358C12.8293 3.20017 13.5913 3.27772 14.2833 3.56648C14.9753 3.85523 15.5665 4.34227 15.9823 4.96628C16.3981 5.59029 16.62 6.32337 16.62 7.07323C16.613 8.08581 16.2049 9.05432 15.4851 9.76658C14.7653 10.4788 13.7926 10.8768 12.78 10.8732ZM12.78 4.60656C12.2939 4.61445 11.821 4.76579 11.4207 5.04157C11.0203 5.31736 10.7104 5.7053 10.5298 6.15666C10.3493 6.60803 10.3061 7.10268 10.4057 7.5785C10.5054 8.05433 10.7434 8.49009 11.0899 8.83107C11.4364 9.17205 11.876 9.40304 12.3533 9.49502C12.8307 9.587 13.3246 9.53587 13.773 9.34805C14.2214 9.16024 14.6043 8.84412 14.8736 8.43939C15.1429 8.03466 15.2866 7.55937 15.2867 7.07323C15.2796 6.41427 15.012 5.7849 14.5423 5.32268C14.0726 4.86047 13.439 4.603 12.78 4.60656Z" fill="white"/>
<path d="M12.78 10.8732C12.0301 10.8653 11.2994 10.6358 10.6798 10.2135C10.0602 9.79114 9.57935 9.19494 9.29786 8.49992C9.01637 7.80491 8.9468 7.04214 9.09791 6.30767C9.24902 5.5732 9.61405 4.89985 10.147 4.3724C10.68 3.84496 11.3572 3.48699 12.0932 3.34358C12.8292 3.20017 13.5912 3.27772 14.2832 3.56648C14.9753 3.85523 15.5664 4.34227 15.9822 4.96628C16.398 5.59029 16.6199 6.32337 16.62 7.07323C16.6129 8.08581 16.2048 9.05432 15.485 9.76658C14.7653 10.4788 13.7925 10.8768 12.78 10.8732ZM12.78 4.60656C12.2939 4.61445 11.821 4.76579 11.4206 5.04157C11.0203 5.31736 10.7103 5.7053 10.5298 6.15666C10.3492 6.60803 10.306 7.10268 10.4057 7.5785C10.5053 8.05433 10.7433 8.49009 11.0898 8.83107C11.4363 9.17205 11.8759 9.40304 12.3532 9.49502C12.8306 9.587 13.3245 9.53587 13.7729 9.34805C14.2213 9.16024 14.6042 8.84412 14.8735 8.43939C15.1428 8.03466 15.2866 7.55937 15.2866 7.07323C15.2796 6.41427 15.012 5.7849 14.5422 5.32268C14.0725 4.86047 13.4389 4.603 12.78 4.60656ZM15.1066 11.7666C12.1496 11.252 9.10552 11.7203 6.43995 13.0999C6.25073 13.205 6.09405 13.36 5.98706 13.5482C5.88006 13.7363 5.82686 13.9502 5.83328 14.1666V16.5399C5.83328 16.7167 5.90352 16.8863 6.02855 17.0113C6.15357 17.1363 6.32314 17.2066 6.49995 17.2066C6.67676 17.2066 6.84633 17.1363 6.97135 17.0113C7.09638 16.8863 7.16662 16.7167 7.16662 16.5399V14.2532C9.6384 13.013 12.4493 12.6195 15.1666 13.1332L15.1066 11.7666Z" fill="white"/>
<path d="M22.5001 14.6668H18.0334V13.6801C18.0334 13.5033 17.9632 13.3337 17.8382 13.2087C17.7131 13.0837 17.5436 13.0134 17.3667 13.0134C17.1899 13.0134 17.0204 13.0837 16.8953 13.2087C16.7703 13.3337 16.7001 13.5033 16.7001 13.6801V14.6668H11.8334C11.6566 14.6668 11.487 14.737 11.362 14.862C11.237 14.987 11.1667 15.1566 11.1667 15.3334V22.0001C11.1667 22.1769 11.237 22.3465 11.362 22.4715C11.487 22.5965 11.6566 22.6668 11.8334 22.6668H22.5001C22.6769 22.6668 22.8465 22.5965 22.9715 22.4715C23.0965 22.3465 23.1667 22.1769 23.1667 22.0001V15.3334C23.1667 15.1566 23.0965 14.987 22.9715 14.862C22.8465 14.737 22.6769 14.6668 22.5001 14.6668ZM21.8334 21.3334H12.5001V16.0001H16.7001V16.2734C16.7001 16.4502 16.7703 16.6198 16.8953 16.7448C17.0204 16.8699 17.1899 16.9401 17.3667 16.9401C17.5436 16.9401 17.7131 16.8699 17.8382 16.7448C17.9632 16.6198 18.0334 16.4502 18.0334 16.2734V16.0001H21.8334V21.3334Z" fill="white"/>
<path d="M15.0399 18.28H19.0133V19.2133H15.0399V18.28ZM7.72659 8.16C5.88088 8.19088 4.06718 8.64715 2.42659 9.49333C2.24816 9.58758 2.0987 9.72854 1.9942 9.90116C1.88969 10.0738 1.83406 10.2715 1.83325 10.4733V12.54C1.83325 12.7168 1.90349 12.8864 2.02851 13.0114C2.15354 13.1364 2.32311 13.2067 2.49992 13.2067C2.67673 13.2067 2.8463 13.1364 2.97132 13.0114C3.09635 12.8864 3.16659 12.7168 3.16659 12.54V10.6067C4.73412 9.82641 6.46963 9.44405 8.21992 9.49333C7.99092 9.07551 7.82469 8.62625 7.72659 8.16ZM22.5733 9.48666C21.1018 8.7148 19.4847 8.26056 17.8266 8.15333C17.7289 8.61876 17.5651 9.06777 17.3399 9.48666C18.902 9.52405 20.4364 9.90652 21.8333 10.6067V12.54C21.8333 12.7168 21.9035 12.8864 22.0285 13.0114C22.1535 13.1364 22.3231 13.2067 22.4999 13.2067C22.6767 13.2067 22.8463 13.1364 22.9713 13.0114C23.0963 12.8864 23.1666 12.7168 23.1666 12.54V10.4733C23.167 10.2704 23.1119 10.0712 23.0074 9.89735C22.9028 9.72345 22.7527 9.58144 22.5733 9.48666ZM7.60659 7.07333V6.62666C7.08433 6.55677 6.60915 6.28815 6.27997 5.87673C5.95078 5.4653 5.79295 4.94277 5.83934 4.4179C5.88573 3.89304 6.13276 3.40628 6.529 3.05897C6.92524 2.71165 7.44017 2.53054 7.96659 2.55333C8.51413 2.55234 9.04041 2.76524 9.43325 3.14666C9.77985 2.86078 10.1605 2.61894 10.5666 2.42666C10.113 1.9051 9.51201 1.53322 8.84284 1.36004C8.17368 1.18686 7.46774 1.22051 6.81808 1.45656C6.16842 1.6926 5.60553 2.11996 5.20361 2.6823C4.80168 3.24464 4.57958 3.91557 4.56659 4.60666C4.58058 5.4525 4.90938 6.26274 5.48879 6.87913C6.06819 7.49551 6.85656 7.87376 7.69992 7.94C7.64337 7.65442 7.61213 7.3644 7.60659 7.07333ZM17.0133 1.22C16.5551 1.2201 16.1016 1.31153 15.6792 1.48896C15.2568 1.66639 14.874 1.92624 14.5533 2.25333C15.0039 2.41664 15.4301 2.64095 15.8199 2.92C16.1312 2.70395 16.4952 2.57642 16.8732 2.551C17.2512 2.52559 17.629 2.60324 17.9664 2.77568C18.3037 2.94812 18.588 3.20888 18.7888 3.53016C18.9896 3.85144 19.0994 4.2212 19.1066 4.6C19.1024 4.98909 18.9881 5.36904 18.7769 5.69585C18.5657 6.02266 18.2663 6.28298 17.9133 6.44666C17.9401 6.65224 17.9534 6.85935 17.9533 7.06666C17.9515 7.33464 17.9292 7.60209 17.8866 7.86666C18.6128 7.67995 19.257 7.25838 19.7188 6.66757C20.1806 6.07676 20.4341 5.34985 20.4399 4.6C20.4311 3.6982 20.0658 2.83653 19.4237 2.20322C18.7817 1.56991 17.9151 1.21643 17.0133 1.22Z" fill="white"/>
</svg>
