<svg width="28" height="34" viewBox="0 0 28 34" fill="none" xmlns="http://www.w3.org/2000/svg">
<path fill-rule="evenodd" clip-rule="evenodd" d="M16.6446 0.333984C17.4272 0.334176 18.1848 0.609708 18.7846 1.11232L19.0013 1.31065L26.358 8.66732C26.9113 9.22069 27.2524 9.95111 27.3213 10.7307L27.3346 11.024V30.334C27.3349 31.1749 27.0173 31.9849 26.4455 32.6016C25.8737 33.2182 25.0899 33.5959 24.2513 33.659L24.0013 33.6673H4.0013C3.16034 33.6676 2.35036 33.35 1.73372 32.7782C1.11709 32.2063 0.739374 31.4226 0.676302 30.584L0.667969 30.334V3.66732C0.667703 2.82636 0.985313 2.01637 1.55713 1.39974C2.12895 0.783102 2.91271 0.40539 3.7513 0.342318L4.0013 0.333984H16.6446ZM14.0013 3.66732H4.0013V30.334H24.0013V13.6673H16.5013C15.8798 13.6673 15.2807 13.4358 14.8206 13.018C14.3606 12.6001 14.0726 12.0259 14.013 11.4073L14.0013 11.1673V3.66732ZM15.648 16.7473C16.0474 19.2856 17.3748 21.5852 19.373 23.2007C20.8513 24.3957 19.4996 26.7357 17.7263 26.054C15.3287 25.1313 12.6739 25.1313 10.2763 26.054C8.5013 26.7373 7.14964 24.3957 8.62797 23.2007C10.6263 21.5853 11.9537 19.2856 12.353 16.7473C12.6496 14.869 15.353 14.8707 15.648 16.7473ZM13.998 20.5873L12.8513 22.5807H15.1513L13.998 20.5873ZM17.3346 4.35732V10.334H23.3113L17.3346 4.35732Z" fill="white"/>
</svg>
