<svg width="20" height="20" viewBox="0 0 20 20" fill="none" xmlns="http://www.w3.org/2000/svg">
<path d="M9.9875 4.26875H10.025C10.1875 4.26875 10.3188 4.1375 10.3188 3.975V2.70625H10.95V2.95625C10.95 3.1625 11.1188 3.33125 11.325 3.33125H12.625C12.725 3.33125 12.8062 3.25 12.8062 3.15V2.2625C12.8062 2.21443 12.7872 2.16833 12.7532 2.13434C12.7192 2.10035 12.6731 2.08125 12.625 2.08125H12.1875V1.70625C12.1875 1.56875 12.075 1.45625 11.9375 1.45625H10.3056C10.287 1.39644 10.2497 1.34416 10.1992 1.30705C10.1487 1.26995 10.0877 1.24996 10.025 1.25H9.9875C9.90959 1.25 9.83488 1.28095 9.77979 1.33604C9.7247 1.39113 9.69375 1.46584 9.69375 1.54375V3.975C9.69375 4.1375 9.825 4.26875 9.9875 4.26875ZM9.68938 9.3525C9.68817 9.34129 9.68755 9.33002 9.6875 9.31875V8.4375C9.6875 8.2625 9.825 8.125 10 8.125C10.175 8.125 10.3125 8.2625 10.3125 8.4375V9.25L11.15 10.0875C11.275 10.2125 11.275 10.4062 11.15 10.5312C11.0813 10.5938 11.0062 10.625 10.925 10.625C10.884 10.6255 10.8434 10.6174 10.8057 10.6013C10.768 10.5851 10.7342 10.5613 10.7062 10.5312L9.78125 9.60625C9.74787 9.57356 9.72228 9.53378 9.70638 9.48985C9.69048 9.44592 9.68466 9.39898 9.68938 9.3525Z" fill="#359C71"/>
<path d="M14.9937 9.97498L15 8.83748C15 8.64998 14.925 8.47498 14.7937 8.34373L13.3187 6.86873H17.025C17.3125 6.86873 17.5688 7.04373 17.675 7.31248L18.7475 9.99998H18.75V18.75H14.3813V18.7562H11.875V18.75H11.8813V15.4375C11.8813 15.1937 11.6875 15 11.4437 15H8.5375C8.29375 15 8.1 15.1937 8.1 15.4375V18.75H8.125V18.7562H5.63125V18.6994L5.625 18.75H1.25V9.99998H1.2525L2.325 7.31248C2.43125 7.04373 2.6875 6.86873 2.975 6.86873H6.68125L5.20625 8.34373C5.075 8.47498 5 8.65623 5 8.83748V9.97498H5.00625C5.00625 9.98123 5.005 9.9856 5.00313 9.9906C5.00119 9.99559 5.00013 10.0009 5 10.0062V10.3125C5 10.3954 5.03292 10.4748 5.09153 10.5334C5.15013 10.5921 5.22962 10.625 5.3125 10.625C5.39538 10.625 5.47487 10.5921 5.53347 10.5334C5.59208 10.4748 5.625 10.3954 5.625 10.3125V10.0062C5.62487 10.0009 5.62381 9.99559 5.62187 9.9906C5.62063 9.9856 5.61875 9.98123 5.61875 9.97498H5.625V9.21873C5.625 9.18748 5.6275 9.15685 5.63125 9.12685C5.63999 8.97511 5.70455 8.83197 5.8125 8.72498L9.65625 4.93748C9.70213 4.89137 9.75667 4.85478 9.81673 4.82981C9.8768 4.80484 9.9412 4.79199 10.0063 4.79199C10.0713 4.79199 10.1357 4.80484 10.1958 4.82981C10.2558 4.85478 10.3104 4.89137 10.3562 4.93748L14.2 8.72498C14.3125 8.83748 14.375 8.98748 14.3813 9.14373V10.375C14.3967 10.4509 14.4398 10.5184 14.5022 10.5644C14.5646 10.6104 14.6418 10.6315 14.7189 10.6237C14.796 10.6159 14.8675 10.5798 14.9194 10.5222C14.9714 10.4647 15.0001 10.39 15 10.3125V10.0012C15 9.9906 14.9994 9.9806 14.9937 9.97498ZM10 11.25C10.4974 11.25 10.9745 11.0524 11.3263 10.7006C11.678 10.3489 11.8756 9.8718 11.8756 9.37435C11.8756 8.8769 11.678 8.39983 11.3263 8.04808C10.9745 7.69634 10.4974 7.49873 10 7.49873C9.50255 7.49873 9.02548 7.69634 8.67373 8.04808C8.32198 8.39983 8.12437 8.8769 8.12437 9.37435C8.12437 9.8718 8.32198 10.3489 8.67373 10.7006C9.02548 11.0524 9.50255 11.25 10 11.25ZM5.63125 10.05V10.0062H5.62563L5.63125 10.05ZM2.05 13.125H2.95C3.05 13.125 3.125 13.05 3.125 12.95V11.425C3.125 11.3312 3.04375 11.25 2.95 11.25H2.05C1.95625 11.25 1.875 11.3312 1.875 11.425V12.95C1.875 13.0437 1.95625 13.125 2.05 13.125ZM4.825 13.125C4.925 13.125 5 13.05 5 12.95V11.425C5 11.3312 4.91875 11.25 4.825 11.25H3.925C3.83125 11.25 3.75 11.3312 3.75 11.425V12.95C3.75 13.0437 3.83125 13.125 3.925 13.125H4.825ZM2.95 15.625C3.05 15.625 3.125 15.55 3.125 15.45V13.925C3.125 13.8312 3.04375 13.75 2.95 13.75H2.05C1.95625 13.75 1.875 13.8312 1.875 13.925V15.45C1.875 15.5437 1.95625 15.625 2.05 15.625H2.95ZM4.825 15.625C4.925 15.625 5 15.55 5 15.45V13.925C5 13.8312 4.91875 13.75 4.825 13.75H3.925C3.83125 13.75 3.75 13.8312 3.75 13.925V15.45C3.75 15.5437 3.83125 15.625 3.925 15.625H4.825ZM15 12.95C15 13.0437 15.0813 13.125 15.175 13.125H16.075C16.175 13.125 16.25 13.05 16.25 12.95V11.425C16.25 11.3312 16.1687 11.25 16.075 11.25H15.175C15.0813 11.25 15 11.3312 15 11.425V12.95ZM18.125 12.95V11.425C18.125 11.3312 18.0437 11.25 17.95 11.25H17.05C16.9563 11.25 16.875 11.3312 16.875 11.425V12.95C16.875 13.0437 16.9563 13.125 17.05 13.125H17.95C18.05 13.125 18.125 13.05 18.125 12.95ZM16.25 15.45V13.925C16.25 13.8312 16.1687 13.75 16.075 13.75H15.175C15.0813 13.75 15 13.8312 15 13.925V15.45C15 15.5437 15.0813 15.625 15.175 15.625H16.075C16.175 15.625 16.25 15.55 16.25 15.45ZM18.125 15.45V13.925C18.125 13.8312 18.0437 13.75 17.95 13.75H17.05C16.9563 13.75 16.875 13.8312 16.875 13.925V15.45C16.875 15.5437 16.9563 15.625 17.05 15.625H17.95C18.05 15.625 18.125 15.55 18.125 15.45Z" fill="#359C71"/>
</svg>
