<svg width="17" height="13" viewBox="0 0 17 13" fill="none" xmlns="http://www.w3.org/2000/svg">
<path d="M3.953 0.667048C3.88624 0.59893 3.80671 0.544635 3.71896 0.507265C3.63121 0.469895 3.53695 0.450182 3.44158 0.449253C3.3462 0.448324 3.25158 0.466198 3.16311 0.501852C3.07465 0.537507 2.99408 0.590243 2.926 0.657049C2.15618 1.42279 1.54549 2.33331 1.12912 3.33612C0.712752 4.33894 0.498941 5.41423 0.500004 6.50005C0.498874 7.62755 0.729431 8.74326 1.17737 9.77796C1.62531 10.8127 2.28108 11.7443 3.104 12.515C3.24252 12.6431 3.4255 12.7121 3.61408 12.7074C3.80265 12.7028 3.98199 12.6248 4.114 12.49C4.43 12.174 4.391 11.671 4.087 11.38C3.4265 10.7506 2.90089 9.99338 2.54212 9.15447C2.18335 8.31556 1.99891 7.41246 2 6.50005C2 4.65405 2.741 2.98005 3.943 1.76205C4.233 1.46705 4.263 0.977048 3.953 0.667048ZM5.714 2.43005C5.5823 2.29454 5.40225 2.21676 5.21331 2.21376C5.02437 2.21076 4.84194 2.28278 4.706 2.41405C4.16482 2.9479 3.73527 3.58411 3.44238 4.2856C3.14949 4.9871 2.99911 5.73986 3 6.50005C3 8.19205 3.73 9.71305 4.893 10.765C5.03038 10.8862 5.20909 10.9498 5.39211 10.9427C5.57512 10.9357 5.74839 10.8584 5.876 10.727C6.204 10.399 6.143 9.88305 5.835 9.59305C5.41295 9.19607 5.07675 8.7168 4.84714 8.18483C4.61753 7.65285 4.49938 7.07946 4.5 6.50005C4.5 5.35005 4.957 4.30605 5.7 3.54005C5.986 3.24605 6.033 2.74805 5.714 2.43005ZM11.286 2.42905C11.4177 2.29354 11.5978 2.21576 11.7867 2.21276C11.9756 2.20976 12.1581 2.28178 12.294 2.41305C12.8353 2.94702 13.2649 3.58339 13.5578 4.28506C13.8507 4.98674 14.001 5.7397 14 6.50005C14 8.19205 13.27 9.71305 12.107 10.765C11.9696 10.8862 11.7909 10.9498 11.6079 10.9427C11.4249 10.9357 11.2516 10.8584 11.124 10.727C10.796 10.399 10.857 9.88305 11.165 9.59305C11.5871 9.19607 11.9233 8.7168 12.1529 8.18483C12.3825 7.65285 12.5006 7.07946 12.5 6.50005C12.5 5.35005 12.043 4.30605 11.3 3.54005C11.014 3.24605 10.967 2.74705 11.286 2.42905ZM13.047 0.667048C13.1138 0.59893 13.1933 0.544635 13.281 0.507265C13.3688 0.469895 13.4631 0.450182 13.5584 0.449253C13.6538 0.448324 13.7484 0.466198 13.8369 0.501852C13.9254 0.537507 14.0059 0.590243 14.074 0.657049C14.8438 1.42279 15.4545 2.33331 15.8709 3.33612C16.2873 4.33894 16.5011 5.41423 16.5 6.50005C16.5011 7.62755 16.2706 8.74326 15.8226 9.77796C15.3747 10.8127 14.7189 11.7443 13.896 12.515C13.7575 12.6431 13.5745 12.7121 13.3859 12.7074C13.1974 12.7028 13.018 12.6248 12.886 12.49C12.57 12.174 12.609 11.671 12.914 11.38C13.5743 10.7505 14.0997 9.99326 14.4583 9.15435C14.8169 8.31544 15.0012 7.41238 15 6.50005C15 4.65405 14.259 2.98005 13.057 1.76205C12.767 1.46705 12.737 0.977048 13.047 0.667048ZM8.5 5.00005C8.10218 5.00005 7.72065 5.15808 7.43934 5.43939C7.15804 5.72069 7 6.10222 7 6.50005C7 6.89787 7.15804 7.2794 7.43934 7.56071C7.72065 7.84201 8.10218 8.00005 8.5 8.00005C8.89783 8.00005 9.27936 7.84201 9.56066 7.56071C9.84197 7.2794 10 6.89787 10 6.50005C10 6.10222 9.84197 5.72069 9.56066 5.43939C9.27936 5.15808 8.89783 5.00005 8.5 5.00005Z" fill="white"/>
</svg>
