<svg width="46" height="45" viewBox="0 0 46 45" fill="none" xmlns="http://www.w3.org/2000/svg">
<rect width="46" height="45" rx="5" fill="#359C71"/>
<g clip-path="url(#clip0_1202_17767)">
<path d="M27 14.0006C28.296 14.0006 29.496 14.4106 30.477 15.1106L21.343 24.2436C21.2475 24.3358 21.1713 24.4462 21.1189 24.5682C21.0665 24.6902 21.0389 24.8214 21.0377 24.9542C21.0366 25.0869 21.0619 25.2186 21.1122 25.3415C21.1625 25.4644 21.2367 25.5761 21.3306 25.67C21.4245 25.7639 21.5361 25.8381 21.659 25.8884C21.7819 25.9387 21.9136 25.964 22.0464 25.9628C22.1792 25.9617 22.3104 25.9341 22.4324 25.8817C22.5544 25.8293 22.6648 25.7531 22.757 25.6576L31.891 16.5236C32.6141 17.5386 33.0019 18.7543 33 20.0006V30.0006C33 30.531 32.7893 31.0397 32.4142 31.4148C32.0391 31.7899 31.5304 32.0006 31 32.0006H17C16.4696 32.0006 15.9609 31.7899 15.5858 31.4148C15.2107 31.0397 15 30.531 15 30.0006V16.0006C15 15.4701 15.2107 14.9614 15.5858 14.5864C15.9609 14.2113 16.4696 14.0006 17 14.0006H27ZM33.657 13.3436C33.8445 13.5311 33.9498 13.7854 33.9498 14.0506C33.9498 14.3157 33.8445 14.57 33.657 14.7576L31.89 16.5236C31.5006 15.9769 31.0227 15.499 30.476 15.1096L32.242 13.3436C32.4295 13.1561 32.6838 13.0508 32.949 13.0508C33.2142 13.0508 33.4695 13.1561 33.657 13.3436Z" fill="white"/>
</g>
<defs>
<clipPath id="clip0_1202_17767">
<rect width="24" height="24" fill="white" transform="translate(12 11)"/>
</clipPath>
</defs>
</svg>
