<svg width="36" height="40" viewBox="0 0 36 40" fill="none" xmlns="http://www.w3.org/2000/svg">
<g clip-path="url(#clip0_11_3164)">
<path d="M26.1683 14.4026C28.7446 16.2433 31.9007 17.3263 35.3094 17.3263V10.7705C34.6642 10.7706 34.0208 10.7033 33.3897 10.5696V15.73C29.9813 15.73 26.8255 14.6472 24.2487 12.8066V26.1854C24.2487 32.8782 18.8203 38.3033 12.1246 38.3033C9.62623 38.3033 7.30403 37.5484 5.37506 36.2536C7.57672 38.5037 10.6471 39.8994 14.0438 39.8994C20.74 39.8994 26.1686 34.4743 26.1686 27.7812V14.4026H26.1683ZM28.5366 7.78853C27.2199 6.35088 26.3553 4.49294 26.1683 2.43888V1.5957H24.3491C24.8071 4.20632 26.3691 6.43667 28.5366 7.78853ZM9.61009 31.1179C8.8745 30.154 8.47686 28.9746 8.47865 27.762C8.47865 24.7011 10.9615 22.2192 14.0249 22.2192C14.5956 22.2189 15.1631 22.3065 15.7072 22.4789V15.7764C15.0713 15.6894 14.4297 15.6523 13.7883 15.6659V20.8827C13.2439 20.7102 12.6762 20.6226 12.1051 20.6232C9.04196 20.6232 6.5592 23.1048 6.5592 26.1662C6.5592 28.3309 7.80016 30.2049 9.61009 31.1179Z" fill="#FF004F"/>
<path d="M24.2487 12.8065C26.8256 14.647 29.9811 15.7299 33.3896 15.7299V10.5695C31.487 10.1644 29.8027 9.17074 28.5364 7.78853C26.3688 6.43653 24.807 4.20619 24.3491 1.5957H19.5707V27.7809C19.5598 30.8336 17.0812 33.3054 14.0245 33.3054C12.2234 33.3054 10.6231 32.4473 9.60976 31.1178C7.80011 30.2049 6.559 28.3307 6.559 26.1663C6.559 23.1052 9.04176 20.6233 12.1049 20.6233C12.6918 20.6233 13.2575 20.7146 13.7881 20.8829V15.666C7.2099 15.8019 1.91956 21.174 1.91956 27.7811C1.91956 31.0793 3.23694 34.0692 5.37514 36.2539C7.30411 37.5484 9.62618 38.3036 12.1247 38.3036C18.8205 38.3036 24.2488 32.878 24.2488 26.1854L24.2487 12.8065Z" fill="black"/>
<path d="M33.3897 10.5697V9.17462C31.6739 9.17722 29.9921 8.69699 28.5364 7.78883C29.825 9.19878 31.5217 10.1711 33.3897 10.5699M24.349 1.59586C24.3053 1.34643 24.2718 1.09533 24.2486 0.843172V0H17.6508V26.1855C17.6403 29.2379 15.1617 31.7097 12.1048 31.7097C11.2382 31.7109 10.3835 31.5084 9.60965 31.1183C10.623 32.4476 12.2233 33.3055 14.0244 33.3055C17.081 33.3055 19.5599 30.8341 19.5706 27.7814V1.596L24.349 1.59586ZM13.7884 15.6662V14.1808C13.2371 14.1055 12.6813 14.0678 12.1248 14.068C5.42828 14.068 0 19.4934 0 26.1855C0 30.3812 2.13338 34.0789 5.37531 36.2539C3.2371 34.0694 1.91972 31.0793 1.91972 27.7812C1.91972 21.1743 7.20993 15.8021 13.7884 15.6662Z" fill="#00F2EA"/>
</g>
<defs>
<clipPath id="clip0_11_3164">
<rect width="35.3103" height="40" fill="white"/>
</clipPath>
</defs>
</svg>
