<svg width="16" height="17" viewBox="0 0 16 17" fill="none" xmlns="http://www.w3.org/2000/svg">
<path d="M5.74238 16.4998C5.05389 16.4965 4.37294 16.3563 3.73916 16.0873C3.10538 15.8184 2.53143 15.426 2.05071 14.9331C1.5736 14.4809 1.19034 13.9391 0.92286 13.3386C0.655383 12.7381 0.508941 12.0908 0.491912 11.4337C0.474884 10.7765 0.587604 10.1225 0.823622 9.50894C1.05964 8.89541 1.41432 8.33444 1.86738 7.85814L8.00071 1.66647C8.32824 1.33953 8.71864 1.08237 9.14832 0.910495C9.578 0.738622 10.0381 0.65561 10.5007 0.666471C10.9963 0.668158 11.4866 0.768503 11.943 0.961653C12.3994 1.1548 12.8128 1.43689 13.159 1.79147C13.8482 2.455 14.2479 3.36357 14.2713 4.31995C14.2947 5.27634 13.9399 6.20336 13.284 6.8998L7.11737 13.0915C6.91986 13.2903 6.68482 13.448 6.4259 13.5553C6.16697 13.6625 5.88931 13.7173 5.60904 13.7165C5.30627 13.7169 5.00649 13.6566 4.72739 13.5392C4.44829 13.4219 4.19554 13.2498 3.98404 13.0331C3.56132 12.6239 3.31719 12.0643 3.3047 11.476C3.29222 10.8877 3.51239 10.3183 3.91738 9.89147L9.60904 4.1748C9.77103 4.06722 9.96553 4.01968 10.1589 4.0404C10.3522 4.06112 10.5322 4.14881 10.6677 4.28827C10.8033 4.42774 10.8857 4.6102 10.9009 4.80406C10.916 4.99792 10.8629 5.19098 10.7507 5.3498L5.05904 11.0665C4.96413 11.1808 4.91794 11.3279 4.93041 11.4759C4.94288 11.624 5.01301 11.7613 5.12571 11.8581C5.24297 11.9762 5.40105 12.0448 5.56738 12.0498C5.62899 12.0507 5.69017 12.0394 5.74738 12.0165C5.80459 11.9936 5.8567 11.9596 5.90071 11.9165L12.059 5.7248C12.4047 5.34079 12.5854 4.83616 12.562 4.32001C12.5386 3.80386 12.313 3.31765 11.934 2.96647C11.582 2.601 11.1033 2.38436 10.5964 2.3611C10.0896 2.33785 9.59303 2.50977 9.20904 2.84147L3.05071 8.9998C2.75125 9.32145 2.51834 9.69913 2.3654 10.1111C2.21245 10.5231 2.14249 10.9613 2.15953 11.4004C2.17657 11.8396 2.28027 12.271 2.46468 12.6699C2.64909 13.0688 2.91056 13.4273 3.23404 13.7248C3.55844 14.0611 3.9466 14.3294 4.37584 14.5139C4.80509 14.6985 5.26681 14.7957 5.73404 14.7998C6.13689 14.8031 6.53642 14.7267 6.90967 14.5751C7.28292 14.4235 7.62255 14.1997 7.90904 13.9165L14.0674 7.7248C14.1445 7.64711 14.2362 7.58536 14.3372 7.5431C14.4383 7.50084 14.5466 7.47889 14.6561 7.47851C14.7656 7.47812 14.8741 7.4993 14.9754 7.54085C15.0767 7.58239 15.1688 7.64349 15.2465 7.72064C15.3242 7.79779 15.386 7.88949 15.4282 7.9905C15.4705 8.09151 15.4925 8.19986 15.4928 8.30936C15.4932 8.41885 15.472 8.52735 15.4305 8.62866C15.389 8.72997 15.3279 8.82211 15.2507 8.8998L9.09238 15.0915C8.65513 15.5364 8.13382 15.8901 7.55872 16.1319C6.98363 16.3736 6.36622 16.4987 5.74238 16.4998Z" fill="black"/>
</svg>
